<svg
        id="credit-cards"
        width="40"
        height="40"
        viewBox="0 0 40 40"
        fill="none"
        xmlns="http://www.w3.org/2000/svg"
      >
        <path
          d="M3.75 15.1332H36.25L36.2509 30C36.2509 30.3316 36.1192 30.6495 35.8848 30.8839C35.6504 31.1183 35.3324 31.25 35.0009 31.25H5.00092C4.66939 31.25 4.35145 31.1183 4.11703 30.8839C3.88261 30.6495 3.75092 30.3316 3.75092 30L3.75 15.1332Z"
          fill="#C3DDF8"
        ></path>
        <path
          d="M35 8.75H5C4.30964 8.75 3.75 9.30964 3.75 10V30C3.75 30.6904 4.30964 31.25 5 31.25H35C35.6904 31.25 36.25 30.6904 36.25 30V10C36.25 9.30964 35.6904 8.75 35 8.75Z"
          stroke="#0271E1"
          strokeWidth="2"
          strokeLinecap="round"
          strokeLinejoin="round"
        ></path>
        <path
          d="M26.25 26.25H31.25"
          stroke="#0271E1"
          strokeWidth="2"
          strokeLinecap="round"
          strokeLinejoin="round"
        ></path>
        <path
          d="M18.75 26.25H21.25"
          stroke="#0271E1"
          strokeWidth="2"
          strokeLinecap="round"
          strokeLinejoin="round"
        ></path>
        <path
          d="M3.75 15.1332H36.25"
          stroke="#0271E1"
          strokeWidth="2"
          strokeLinecap="round"
          strokeLinejoin="round"
        ></path>
      </svg>