<svg
        id="bitcoin"
        width="40"
        height="40"
        viewBox="0 0 40 40"
        xmlns="http://www.w3.org/2000/svg"
        fill="none"
      >
        <path
          d="M20 35C28.2843 35 35 28.2843 35 20C35 11.7157 28.2843 5 20 5C11.7157 5 5 11.7157 5 20C5 28.2843 11.7157 35 20 35Z"
          fill="#C3DDF8"
        ></path>
        <path
          d="M20 35C28.2843 35 35 28.2843 35 20C35 11.7157 28.2843 5 20 5C11.7157 5 5 11.7157 5 20C5 28.2843 11.7157 35 20 35Z"
          stroke="#0271E1"
          stroke-width="2"
          stroke-linecap="round"
          stroke-linejoin="round"
        ></path>
        <path
          d="M26.0326 17.311C26.1508 15.3793 24.694 14.4619 22.7592 13.9265L23.1632 11.2904L21.6428 11.0163L21.2495 13.583C20.8498 13.5109 20.4399 13.4456 20.0327 13.3809L20.4289 10.7974L18.9094 10.5233L18.5048 13.1585C18.1746 13.1062 17.8503 13.0544 17.5351 12.9977L17.5361 12.9895L15.4392 12.6106L15.1769 14.3244C15.1769 14.3244 16.3032 14.5043 16.2811 14.5228C16.897 14.634 17.0396 15.0475 17.048 15.3836L16.5878 18.3867C16.6302 18.3946 16.6854 18.4065 16.7467 18.4269C16.6961 18.4178 16.6419 18.4077 16.5861 18.3981L15.9408 22.6051C15.8824 22.8047 15.7185 23.1103 15.2881 23.0335C15.3048 23.0552 14.183 22.8339 14.183 22.8339L13.5871 24.6957L15.5657 25.0524C15.9339 25.1193 16.2952 25.1912 16.6505 25.2577L16.2424 27.924L17.7611 28.1981L18.1655 25.5602C18.5811 25.6445 18.9841 25.7208 19.3782 25.7915L18.975 28.4171L20.4954 28.6912L20.9039 26.0299C23.4837 26.3361 25.3769 25.9791 25.9874 23.4859C26.4794 21.4785 25.7098 20.4043 24.3151 19.7749C25.2693 19.4602 25.9483 18.7249 26.0326 17.311V17.311ZM23.0316 22.6282C22.727 24.6207 19.5292 23.8111 18.4986 23.6263L19.0405 20.0939C20.0712 20.2801 23.3503 20.5501 23.0316 22.6282ZM23.0884 17.5168C22.8101 19.3294 20.1466 18.6317 19.2883 18.477L19.7795 15.2732C20.6378 15.428 23.3781 15.6262 23.0884 17.5168V17.5168Z"
          fill="#0271E1"
        ></path>
      </svg>