 <svg
        id="electricity"
        height="40"
        viewBox="0 0 40 40"
        xmlns="http://www.w3.org/2000/svg"
        fill="none"
      >
        <path
          d="M32.5 7.5H7.5C6.83696 7.50001 6.20108 7.7634 5.73224 8.23224C5.2634 8.70108 5.00001 9.33696 5 10V27.5C5.00001 28.163 5.2634 28.7989 5.73224 29.2678C6.20108 29.7366 6.83696 30 7.5 30H32.5C33.163 30 33.7989 29.7366 34.2678 29.2678C34.7366 28.7989 35 28.163 35 27.5V10C35 9.33696 34.7366 8.70108 34.2678 8.23224C33.7989 7.7634 33.163 7.50001 32.5 7.5V7.5ZM17.5 23.75V13.75L25 18.75L17.5 23.75Z"
          fill="#C3DDF8"
        ></path>
        <path
          d="M7.5 30L32.5 30C33.8807 30 35 28.8807 35 27.5V10C35 8.61929 33.8807 7.5 32.5 7.5L7.5 7.5C6.11929 7.5 5 8.61929 5 10L5 27.5C5 28.8807 6.11929 30 7.5 30Z"
          stroke="#0271E1"
          stroke-width="2"
          stroke-linecap="round"
          stroke-linejoin="round"
        ></path>
        <path
          d="M25 35H15"
          stroke="#0271E1"
          stroke-width="2"
          stroke-linecap="round"
          stroke-linejoin="round"
        ></path>
        <path
          d="M25 18.75L17.5 13.75V23.75L25 18.75Z"
          stroke="#0271E1"
          stroke-width="2"
          stroke-linecap="round"
          stroke-linejoin="round"
        ></path>
      </svg>