   <svg
        id="home-loans"
        width="40"
        height="40"
        viewBox="0 0 40 40"
        fill="none"
        xmlns="http://www.w3.org/2000/svg"
      >
        <path
          d="M23.7452 33.7487V23.7487H16.2452V33.7487L6.24609 33.75V18.0529C6.24609 17.8787 6.28248 17.7065 6.35293 17.5472C6.42338 17.388 6.52632 17.2452 6.65517 17.128L19.1543 5.76323C19.3844 5.55402 19.6842 5.43809 19.9952 5.43808C20.3062 5.43807 20.606 5.55398 20.8361 5.76317L33.337 17.128C33.4658 17.2452 33.5688 17.388 33.6392 17.5473C33.7097 17.7065 33.7461 17.8788 33.7461 18.0529V33.75L23.7452 33.7487Z"
          fill="#C3DDF8"
        ></path>
        <path
          d="M33.7461 33.75V18.0529C33.7461 17.8788 33.7097 17.7065 33.6392 17.5473C33.5688 17.388 33.4658 17.2452 33.337 17.128L20.8361 5.76317C20.606 5.55398 20.3062 5.43807 19.9952 5.43808C19.6842 5.43809 19.3844 5.55402 19.1543 5.76323L6.65517 17.128C6.52632 17.2452 6.42338 17.388 6.35293 17.5472C6.28248 17.7065 6.24609 17.8787 6.24609 18.0529V33.75"
          stroke="#0271E1"
          strokeWidth="2"
          strokeLinecap="round"
          strokeLinejoin="round"
        ></path>
        <path
          d="M2.49609 33.75H37.4961"
          stroke="#0271E1"
          strokeWidth="2"
          strokeLinecap="round"
          strokeLinejoin="round"
        ></path>
        <path
          d="M23.7441 33.7486V24.9986C23.7441 24.6671 23.6124 24.3492 23.378 24.1147C23.1436 23.8803 22.8257 23.7486 22.4941 23.7486H17.4941C17.1626 23.7486 16.8447 23.8803 16.6103 24.1147C16.3758 24.3492 16.2441 24.6671 16.2441 24.9986V33.7486"
          stroke="#0271E1"
          strokeWidth="2"
          strokeLinecap="round"
          strokeLinejoin="round"
        ></path>
      </svg>