 <svg
        id="life-insurance"
        width="40"
        height="40"
        viewBox="0 0 40 40"
        xmlns="http://www.w3.org/2000/svg"
        fill="none"
      >
        <path
          d="M20 5C24.0742 5.00012 27.9998 6.53057 30.999 9.28814C33.9983 12.0457 35.8523 15.8292 36.1938 19.8891C36.2087 20.0619 36.1876 20.2359 36.1317 20.4002C36.0759 20.5644 35.9866 20.7152 35.8695 20.8431C35.7524 20.971 35.61 21.0732 35.4513 21.1433C35.2926 21.2133 35.1212 21.2496 34.9477 21.25H26.25C26.25 10 20 5 20 5Z"
          fill="#C3DDF8"
        ></path>
        <path
          d="M19.9992 5C15.925 5.00012 11.9994 6.53057 9.00019 9.28814C6.00098 12.0457 4.14695 15.8292 3.80541 19.8891C3.79052 20.0619 3.81166 20.2359 3.86749 20.4002C3.92332 20.5644 4.01262 20.7152 4.12975 20.8431C4.24687 20.971 4.38927 21.0732 4.54794 21.1433C4.7066 21.2133 4.87807 21.2496 5.05151 21.25H13.7492C13.7492 10 19.9992 5 19.9992 5Z"
          fill="#C3DDF8"
        ></path>
        <path
          d="M27.5 31.25C27.5 32.2446 27.1049 33.1984 26.4017 33.9017C25.6984 34.6049 24.7446 35 23.75 35C22.7554 35 21.8016 34.6049 21.0983 33.9017C20.3951 33.1984 20 32.2446 20 31.25V21.25"
          stroke="#0271E1"
          stroke-width="2"
          stroke-linecap="round"
          stroke-linejoin="round"
        ></path>
        <path
          d="M5.05151 21.25C4.87807 21.2497 4.7066 21.2133 4.54794 21.1433C4.38927 21.0732 4.24687 20.971 4.12975 20.8431C4.01262 20.7152 3.92332 20.5644 3.86749 20.4002C3.81166 20.236 3.79052 20.062 3.80541 19.8892C4.14683 15.8292 6.00082 12.0456 9.00006 9.28801C11.9993 6.53041 15.925 5 19.9992 5C24.0735 5 27.9992 6.53041 30.9984 9.28801C33.9976 12.0456 35.8516 15.8292 36.1931 19.8892C36.2079 20.062 36.1868 20.236 36.131 20.4002C36.0752 20.5644 35.9858 20.7152 35.8687 20.8431C35.7516 20.971 35.6092 21.0732 35.4505 21.1433C35.2919 21.2133 35.1204 21.2497 34.947 21.25H5.05151Z"
          stroke="#0271E1"
          stroke-width="2"
          stroke-linecap="round"
          stroke-linejoin="round"
        ></path>
        <path
          d="M13.75 21.25C13.75 10 20 5 20 5C20 5 26.25 10 26.25 21.25"
          stroke="#0271E1"
          stroke-width="2"
          stroke-linecap="round"
          stroke-linejoin="round"
        ></path>
      </svg>