 <svg
        id="intl-money-transfers"
        width="40"
        height="40"
        viewBox="0 0 40 40"
        xmlns="http://www.w3.org/2000/svg"
        fill="none"
      >
        <path
          d="M20.3518 34.996C23.0943 34.9323 25.7668 34.1178 28.0787 32.6412C30.3906 31.1646 32.2533 29.0823 33.4643 26.6208L33.464 26.6207L24.9818 21.4037C24.8331 21.3123 24.6669 21.253 24.4939 21.2297L20.9285 20.749C20.6608 20.7129 20.3886 20.7646 20.1526 20.8962C19.9167 21.0278 19.7297 21.2322 19.6198 21.479L17.4793 26.2819C17.3798 26.5052 17.348 26.7529 17.3878 26.9941C17.4276 27.2354 17.5373 27.4597 17.7033 27.6393L20.6407 30.8166C20.7739 30.9606 20.8713 31.134 20.9251 31.3226C20.9788 31.5113 20.9874 31.7099 20.9502 31.9025L20.3518 34.9957L20.3518 34.996Z"
          fill="#C3DDF8"
        ></path>
        <path
          d="M10.1486 8.6885L8.75106 11.9931C8.62645 12.2878 8.61956 12.619 8.73181 12.9186L10.5273 17.7105C10.6008 17.9067 10.7225 18.0813 10.8811 18.2182C11.0397 18.3551 11.2303 18.45 11.4351 18.494L12.2825 18.6761L13.5836 15.5873C13.6791 15.3607 13.8393 15.1672 14.0442 15.0312C14.2491 14.8951 14.4896 14.8226 14.7356 14.8226H18.0708C18.2821 14.8226 18.49 14.769 18.6751 14.6668L20.5878 13.6105C20.6721 13.564 20.7506 13.5079 20.822 13.4434L25.0268 9.64064C25.2366 9.45093 25.3758 9.1957 25.4218 8.91663C25.4677 8.63756 25.4177 8.35116 25.2798 8.10421L23.8214 5.49196L23.8216 5.49124C21.4544 4.87069 18.9716 4.83756 16.5887 5.39471C14.2058 5.95187 11.995 7.08246 10.1484 8.68825L10.1486 8.6885Z"
          fill="#C3DDF8"
        ></path>
        <path
          d="M20 35C28.2843 35 35 28.2843 35 20C35 11.7157 28.2843 5 20 5C11.7157 5 5 11.7157 5 20C5 28.2843 11.7157 35 20 35Z"
          stroke="#0271E1"
          stroke-width="2"
          stroke-linecap="round"
          stroke-linejoin="round"
        ></path>
        <path
          d="M33.464 26.6207L24.9818 21.4037C24.8331 21.3123 24.6669 21.253 24.4939 21.2297L20.9285 20.749C20.6608 20.7129 20.3886 20.7646 20.1526 20.8962C19.9167 21.0278 19.7298 21.2322 19.6198 21.479L17.4793 26.2819C17.3798 26.5052 17.348 26.7529 17.3878 26.9941C17.4276 27.2354 17.5373 27.4597 17.7033 27.6393L20.6407 30.8166C20.7739 30.9606 20.8713 31.134 20.9251 31.3226C20.9788 31.5113 20.9874 31.7099 20.9502 31.9025L20.3518 34.9957"
          stroke="#0271E1"
          stroke-width="2"
          stroke-linecap="round"
          stroke-linejoin="round"
        ></path>
        <path
          d="M10.1486 8.68849L8.75106 11.9931C8.62645 12.2878 8.61956 12.619 8.73181 12.9186L10.5273 17.7105C10.6008 17.9067 10.7225 18.0813 10.8811 18.2182C11.0397 18.3551 11.2303 18.45 11.4351 18.494L14.7836 19.2137C14.9694 19.2536 15.1436 19.3354 15.293 19.4528C15.4425 19.5702 15.5632 19.7201 15.646 19.8911L16.2406 21.1196C16.343 21.331 16.5028 21.5093 16.7018 21.634C16.9008 21.7588 17.1309 21.825 17.3658 21.825H19.4646"
          stroke="#0271E1"
          stroke-width="2"
          stroke-linecap="round"
          stroke-linejoin="round"
        ></path>
        <path
          d="M23.8222 5.49195L25.2805 8.1042C25.4184 8.35115 25.4685 8.63755 25.4225 8.91662C25.3766 9.19569 25.2373 9.45092 25.0276 9.64063L20.8227 13.4434C20.7514 13.5079 20.6728 13.564 20.5886 13.6105L18.6758 14.6668C18.4908 14.769 18.2829 14.8226 18.0715 14.8226H14.7363C14.4903 14.8226 14.2499 14.8951 14.0449 15.0312C13.84 15.1672 13.6798 15.3607 13.5843 15.5873L12.2832 18.6761"
          stroke="#0271E1"
          stroke-width="2"
          stroke-linecap="round"
          stroke-linejoin="round"
        ></path>
      </svg>