 <svg
        id="personal-loans"
        width="40"
        height="40"
        viewBox="0 0 40 40"
        fill="none"
        xmlns="http://www.w3.org/2000/svg"
      >
        <path
          d="M20 25C22.7614 25 25 22.7614 25 20C25 17.2386 22.7614 15 20 15C17.2386 15 15 17.2386 15 20C15 22.7614 17.2386 25 20 25Z"
          fill="#C3DDF8"
        ></path>
        <path
          d="M36.25 10H27.5L37.5 18.75V11.25C37.5 11.0858 37.4677 10.9233 37.4049 10.7716C37.342 10.62 37.25 10.4822 37.1339 10.3661C37.0178 10.25 36.88 10.158 36.7284 10.0951C36.5767 10.0323 36.4142 10 36.25 10V10Z"
          fill="#C3DDF8"
        ></path>
        <path
          d="M36.25 30C36.4142 30 36.5767 29.9677 36.7284 29.9049C36.88 29.842 37.0178 29.75 37.1339 29.6339C37.25 29.5178 37.342 29.38 37.4049 29.2284C37.4677 29.0767 37.5 28.9142 37.5 28.75V21.25L27.5 30H36.25Z"
          fill="#C3DDF8"
        ></path>
        <path
          d="M2.5 11.25V18.75L12.5 10H3.75C3.58585 10 3.4233 10.0323 3.27164 10.0951C3.11999 10.158 2.98219 10.25 2.86611 10.3661C2.75004 10.4822 2.65797 10.62 2.59515 10.7716C2.53233 10.9233 2.5 11.0858 2.5 11.25V11.25Z"
          fill="#C3DDF8"
        ></path>
        <path
          d="M2.5 28.75C2.5 28.9142 2.53233 29.0767 2.59515 29.2284C2.65797 29.38 2.75004 29.5178 2.86611 29.6339C2.98219 29.75 3.11999 29.842 3.27164 29.9049C3.4233 29.9677 3.58585 30 3.75 30H12.5L2.5 21.25V28.75Z"
          fill="#C3DDF8"
        ></path>
        <path
          d="M36.25 10H3.75C3.05964 10 2.5 10.5596 2.5 11.25V28.75C2.5 29.4404 3.05964 30 3.75 30H36.25C36.9404 30 37.5 29.4404 37.5 28.75V11.25C37.5 10.5596 36.9404 10 36.25 10Z"
          stroke="#0271E1"
          stroke-width="2"
          stroke-linecap="round"
          stroke-linejoin="round"
        ></path>
        <path
          d="M20 25C22.7614 25 25 22.7614 25 20C25 17.2386 22.7614 15 20 15C17.2386 15 15 17.2386 15 20C15 22.7614 17.2386 25 20 25Z"
          stroke="#0271E1"
          stroke-width="2"
          stroke-linecap="round"
          stroke-linejoin="round"
        ></path>
        <path
          d="M27.5 10L37.5 18.75"
          stroke="#0271E1"
          stroke-width="2"
          stroke-linecap="round"
          stroke-linejoin="round"
        ></path>
        <path
          d="M27.5 30L37.5 21.25"
          stroke="#0271E1"
          stroke-width="2"
          stroke-linecap="round"
          stroke-linejoin="round"
        ></path>
        <path
          d="M12.5 10L2.5 18.75"
          stroke="#0271E1"
          stroke-width="2"
          stroke-linecap="round"
          stroke-linejoin="round"
        ></path>
        <path
          d="M12.5 30L2.5 21.25"
          stroke="#0271E1"
          stroke-width="2"
          stroke-linecap="round"
          stroke-linejoin="round"
        ></path>
      </svg>