 <svg
        id="pet-insurance"
        width="40"
        height="40"
        viewBox="0 0 40 40"
        fill="none"
        xmlns="http://www.w3.org/2000/svg"
      >
        <path
          d="M33.125 20C34.8509 20 36.25 18.6009 36.25 16.875C36.25 15.1491 34.8509 13.75 33.125 13.75C31.3991 13.75 30 15.1491 30 16.875C30 18.6009 31.3991 20 33.125 20Z"
          fill="#C3DDF8"
        ></path>
        <path
          d="M6.875 20C8.60089 20 10 18.6009 10 16.875C10 15.1491 8.60089 13.75 6.875 13.75C5.14911 13.75 3.75 15.1491 3.75 16.875C3.75 18.6009 5.14911 20 6.875 20Z"
          fill="#C3DDF8"
        ></path>
        <path
          d="M14.375 12.5C16.1009 12.5 17.5 11.1009 17.5 9.375C17.5 7.64911 16.1009 6.25 14.375 6.25C12.6491 6.25 11.25 7.64911 11.25 9.375C11.25 11.1009 12.6491 12.5 14.375 12.5Z"
          fill="#C3DDF8"
        ></path>
        <path
          d="M25.625 12.5C27.3509 12.5 28.75 11.1009 28.75 9.375C28.75 7.64911 27.3509 6.25 25.625 6.25C23.8991 6.25 22.5 7.64911 22.5 9.375C22.5 11.1009 23.8991 12.5 25.625 12.5Z"
          fill="#C3DDF8"
        ></path>
        <path
          d="M28.631 24.3521C27.0632 23.4813 25.9026 22.0267 25.4017 20.3046L25.4016 20.3048C25.0617 19.1353 24.3513 18.1077 23.3773 17.3765C22.4033 16.6453 21.2183 16.25 20.0004 16.25C18.7825 16.25 17.5975 16.6453 16.6235 17.3765C15.6495 18.1077 14.9391 19.1353 14.5992 20.3048L14.599 20.3046C14.0982 22.0267 12.9376 23.4813 11.3698 24.3521C10.2404 24.9643 9.38996 25.9876 8.99465 27.2098C8.59933 28.4321 8.68951 29.7596 9.24648 30.9172C9.80345 32.0748 10.7845 32.9737 11.9863 33.4275C13.188 33.8813 14.5184 33.8553 15.7015 33.3549C18.4561 32.2253 21.5446 32.2253 24.2993 33.3549C25.4825 33.8559 26.8131 33.8823 28.0153 33.4285C29.2174 32.9748 30.1988 32.0758 30.7559 30.918C31.313 29.7601 31.403 28.4323 31.0074 27.2098C30.6118 25.9873 29.7608 24.964 28.631 24.3521H28.631Z"
          fill="#C3DDF8"
        ></path>
        <path
          d="M33.125 20C34.8509 20 36.25 18.6009 36.25 16.875C36.25 15.1491 34.8509 13.75 33.125 13.75C31.3991 13.75 30 15.1491 30 16.875C30 18.6009 31.3991 20 33.125 20Z"
          stroke="#0271E1"
          stroke-width="2"
          stroke-linecap="round"
          stroke-linejoin="round"
        ></path>
        <path
          d="M6.875 20C8.60089 20 10 18.6009 10 16.875C10 15.1491 8.60089 13.75 6.875 13.75C5.14911 13.75 3.75 15.1491 3.75 16.875C3.75 18.6009 5.14911 20 6.875 20Z"
          stroke="#0271E1"
          stroke-width="2"
          stroke-linecap="round"
          stroke-linejoin="round"
        ></path>
        <path
          d="M14.375 12.5C16.1009 12.5 17.5 11.1009 17.5 9.375C17.5 7.64911 16.1009 6.25 14.375 6.25C12.6491 6.25 11.25 7.64911 11.25 9.375C11.25 11.1009 12.6491 12.5 14.375 12.5Z"
          stroke="#0271E1"
          stroke-width="2"
          stroke-linecap="round"
          stroke-linejoin="round"
        ></path>
        <path
          d="M25.625 12.5C27.3509 12.5 28.75 11.1009 28.75 9.375C28.75 7.64911 27.3509 6.25 25.625 6.25C23.8991 6.25 22.5 7.64911 22.5 9.375C22.5 11.1009 23.8991 12.5 25.625 12.5Z"
          stroke="#0271E1"
          stroke-width="2"
          stroke-linecap="round"
          stroke-linejoin="round"
        ></path>
        <path
          d="M28.631 24.3521C27.0632 23.4813 25.9026 22.0267 25.4017 20.3046L25.4016 20.3048C25.0617 19.1353 24.3513 18.1077 23.3773 17.3765C22.4033 16.6453 21.2183 16.25 20.0004 16.25C18.7825 16.25 17.5975 16.6453 16.6235 17.3765C15.6495 18.1077 14.9391 19.1353 14.5992 20.3048L14.599 20.3046C14.0982 22.0267 12.9376 23.4813 11.3698 24.3521C10.2404 24.9643 9.38996 25.9876 8.99465 27.2098C8.59933 28.4321 8.68951 29.7596 9.24648 30.9172C9.80345 32.0748 10.7845 32.9737 11.9863 33.4275C13.188 33.8813 14.5184 33.8553 15.7015 33.3549C18.4561 32.2253 21.5446 32.2253 24.2993 33.3549C25.4825 33.8559 26.8131 33.8823 28.0153 33.4285C29.2174 32.9748 30.1988 32.0758 30.7559 30.918C31.313 29.7601 31.403 28.4323 31.0074 27.2098C30.6118 25.9873 29.7608 24.964 28.631 24.3521Z"
          stroke="#0271E1"
          stroke-width="2"
          stroke-linecap="round"
          stroke-linejoin="round"
        ></path>
      </svg>