<svg
        id="short-term-loans"
        width="40"
        height="40"
        viewBox="0 0 40 40"
        xmlns="http://www.w3.org/2000/svg"
        fill="none"
      >
        <path d="M20 20L28.75 11.25H11.25L20 20Z" fill="#C3DDF8"></path>
        <path
          d="M9.26758 6.25H30.732C30.9793 6.25 31.2209 6.32331 31.4265 6.46066C31.6321 6.59801 31.7923 6.79324 31.8869 7.02165C31.9815 7.25005 32.0063 7.50139 31.958 7.74386C31.9098 7.98634 31.7907 8.20907 31.6159 8.38388L19.9998 20L8.38369 8.38388C8.20888 8.20907 8.08983 7.98634 8.0416 7.74386C7.99337 7.50139 8.01812 7.25005 8.11273 7.02165C8.20734 6.79324 8.36755 6.59801 8.57312 6.46066C8.77868 6.32331 9.02035 6.25 9.26758 6.25Z"
          stroke="#0271E1"
          stroke-width="2"
          stroke-linecap="round"
          stroke-linejoin="round"
        ></path>
        <path
          d="M9.26758 33.75H30.732C30.9793 33.75 31.2209 33.6767 31.4265 33.5393C31.6321 33.402 31.7923 33.2068 31.8869 32.9784C31.9815 32.7499 32.0063 32.4986 31.958 32.2561C31.9098 32.0137 31.7907 31.7909 31.6159 31.6161L19.9998 20L8.38369 31.6161C8.20888 31.7909 8.08983 32.0137 8.0416 32.2561C7.99337 32.4986 8.01812 32.7499 8.11273 32.9784C8.20734 33.2068 8.36755 33.402 8.57312 33.5393C8.77868 33.6767 9.02035 33.75 9.26758 33.75Z"
          stroke="#0271E1"
          stroke-width="2"
          stroke-linecap="round"
          stroke-linejoin="round"
        ></path>
        <path
          d="M11.25 11.25H28.75"
          stroke="#0271E1"
          stroke-width="2"
          stroke-linecap="round"
          stroke-linejoin="round"
        ></path>
      </svg>