<svg
        id="travel-deals"
        width="40"
        height="40"
        viewBox="0 0 40 40"
        xmlns="http://www.w3.org/2000/svg"
        fill="none"
      >
        <path
          d="M6.25 13.75H33.75V7.5C33.75 7.16848 33.6183 6.85054 33.3839 6.61612C33.1495 6.3817 32.8315 6.25 32.5 6.25H7.5C7.16848 6.25 6.85054 6.3817 6.61612 6.61612C6.3817 6.85054 6.25 7.16848 6.25 7.5V13.75Z"
          fill="#C3DDF8"
        ></path>
        <path
          d="M32.5 6.25H7.5C6.80964 6.25 6.25 6.80964 6.25 7.5V32.5C6.25 33.1904 6.80964 33.75 7.5 33.75H32.5C33.1904 33.75 33.75 33.1904 33.75 32.5V7.5C33.75 6.80964 33.1904 6.25 32.5 6.25Z"
          stroke="#0271E1"
          stroke-width="2"
          stroke-linecap="round"
          stroke-linejoin="round"
        ></path>
        <path
          d="M27.5 3.75V8.75"
          stroke="#0271E1"
          stroke-width="2"
          stroke-linecap="round"
          stroke-linejoin="round"
        ></path>
        <path
          d="M12.5 3.75V8.75"
          stroke="#0271E1"
          stroke-width="2"
          stroke-linecap="round"
          stroke-linejoin="round"
        ></path>
        <path
          d="M6.25 13.75H33.75"
          stroke="#0271E1"
          stroke-width="2"
          stroke-linecap="round"
          stroke-linejoin="round"
        ></path>
        <path
          d="M14.375 19.9995H18.75L16.25 23.1245C16.6611 23.1245 17.0658 23.2258 17.4283 23.4196C17.7909 23.6133 18.1 23.8935 18.3285 24.2352C18.5569 24.577 18.6975 24.9698 18.7379 25.3789C18.7783 25.7879 18.7172 26.2007 18.56 26.5805C18.4028 26.9603 18.1544 27.2955 17.8367 27.5564C17.5191 27.8173 17.142 27.9958 16.7388 28.0762C16.3357 28.1566 15.919 28.1363 15.5256 28.0172C15.1321 27.8981 14.7742 27.6838 14.4833 27.3933"
          stroke="#0271E1"
          stroke-width="2"
          stroke-linecap="round"
          stroke-linejoin="round"
        ></path>
        <path
          d="M22.5 21.8745L25 19.9995V28.1245"
          stroke="#0271E1"
          stroke-width="2"
          stroke-linecap="round"
          stroke-linejoin="round"
        ></path>
      </svg>