<svg
        id="travel-money"
        width="40"
        height="40"
        viewBox="0 0 40 40"
        xmlns="http://www.w3.org/2000/svg"
        fill="none"
      >
        <path
          d="M20 33.75L13.75 36.25V31.25L16.25 28.75V23.75L3.75 26.25V21.25L16.25 15L16.2676 7.5C16.2676 6.50544 16.6627 5.55161 17.3659 4.84835C18.0692 4.14509 19.023 3.75 20.0176 3.75C21.0121 3.75 21.966 4.14509 22.6692 4.84835C23.3725 5.55161 23.7676 6.50544 23.7676 7.5L23.7852 15L36.2852 21.25V26.25L23.7852 23.75V28.75L26.25 31.25V36.25L20 33.75Z"
          fill="#C3DDF8"
        ></path>
        <path
          d="M20 33.75L13.75 36.25V31.25L16.25 28.75V23.75L3.75 26.25V21.25L16.25 15L16.2676 7.5C16.2676 6.50544 16.6627 5.55161 17.3659 4.84835C18.0692 4.14509 19.023 3.75 20.0176 3.75C21.0121 3.75 21.966 4.14509 22.6692 4.84835C23.3725 5.55161 23.7676 6.50544 23.7676 7.5L23.7852 15L36.2852 21.25V26.25L23.7852 23.75V28.75L26.25 31.25V36.25L20 33.75Z"
          stroke="#0271E1"
          stroke-width="2"
          stroke-linecap="round"
          stroke-linejoin="round"
        ></path>
      </svg>