<svg width="0" height="0" style="position:absolute"><symbol viewBox="0 0 24 24" id="add" xmlns="http://www.w3.org/2000/svg"><path d="M19 13h-6v6h-2v-6H5v-2h6V5h2v6h6v2z"></path><path d="M0 0h24v24H0z" fill="none"></path></symbol><symbol viewBox="0 0 24 24" id="alarm" xmlns="http://www.w3.org/2000/svg"><path d="M0 0h24v24H0z" fill="none"></path><path d="M22 5.72l-4.6-3.86-1.29 1.53 4.6 3.86L22 5.72zM7.88 3.39L6.6 1.86 2 5.71l1.29 1.53 4.59-3.85zM12.5 8H11v6l4.75 2.85.75-1.23-4-2.37V8zM12 4c-4.97 0-9 4.03-9 9s4.02 9 9 9a9 9 0 000-18zm0 16c-3.87 0-7-3.13-7-7s3.13-7 7-7 7 3.13 7 7-3.13 7-7 7z"></path></symbol><symbol viewBox="0 0 24 24" id="arrow-down" xmlns="http://www.w3.org/2000/svg"><path d="M0 0h24v24H0V0z" fill="none"></path><path d="M20 12l-1.41-1.41L13 16.17V4h-2v12.17l-5.58-5.59L4 12l8 8 8-8z"></path></symbol><symbol viewBox="0 0 24 24" id="arrow-left" xmlns="http://www.w3.org/2000/svg"><path d="M12.707 5.707a1 1 0 00-1.414-1.414l-7 7a1 1 0 000 1.414l7 7a1 1 0 001.414-1.414L7.414 13H19a1 1 0 100-2H7.414l5.293-5.293z"></path></symbol><symbol viewBox="0 0 24 24" id="arrow-up" xmlns="http://www.w3.org/2000/svg"><path d="M0 0h24v24H0V0z" fill="none"></path><path d="M4 12l1.41 1.41L11 7.83V20h2V7.83l5.58 5.59L20 12l-8-8-8 8z"></path></symbol><symbol viewBox="0 0 24 24" id="business" xmlns="http://www.w3.org/2000/svg"><path d="M0 0h24v24H0z" fill="none"></path><path d="M12 7V3H2v18h20V7H12zM6 19H4v-2h2v2zm0-4H4v-2h2v2zm0-4H4V9h2v2zm0-4H4V5h2v2zm4 12H8v-2h2v2zm0-4H8v-2h2v2zm0-4H8V9h2v2zm0-4H8V5h2v2zm10 12h-8v-2h2v-2h-2v-2h2v-2h-2V9h8v10zm-2-8h-2v2h2v-2zm0 4h-2v2h2v-2z"></path></symbol><symbol viewBox="0 0 24 24" id="business-center" xmlns="http://www.w3.org/2000/svg"><path fill="none" d="M0 0h24v24H0zm10 5h4v2h-4zm0 0h4v2h-4z"></path><path d="M10 16v-1H3.01L3 19c0 1.11.89 2 2 2h14c1.11 0 2-.89 2-2v-4h-7v1h-4zm10-9h-4.01V5l-2-2h-4l-2 2v2H4c-1.1 0-2 .9-2 2v3c0 1.11.89 2 2 2h6v-2h4v2h6c1.1 0 2-.9 2-2V9c0-1.1-.9-2-2-2zm-6 0h-4V5h4v2z"></path></symbol><symbol viewBox="0 0 24 24" id="calendar-today" xmlns="http://www.w3.org/2000/svg"><path d="M0 0h24v24H0z" fill="none"></path><path d="M19 3h-1V1h-2v2H8V1H6v2H5c-1.11 0-1.99.9-1.99 2L3 19a2 2 0 002 2h14c1.1 0 2-.9 2-2V5c0-1.1-.9-2-2-2zm0 16H5V8h14v11zM7 10h5v5H7z"></path></symbol><symbol viewBox="0 0 24 24" id="chat" xmlns="http://www.w3.org/2000/svg"><path d="M0 0h24v24H0V0z" fill="none"></path><path d="M20 2H4c-1.1 0-2 .9-2 2v18l4-4h14c1.1 0 2-.9 2-2V4c0-1.1-.9-2-2-2zm0 14H6l-2 2V4h16v12z"></path></symbol><symbol viewBox="0 0 24 24" id="check" xmlns="http://www.w3.org/2000/svg"><path d="M0 0h24v24H0z" fill="none"></path><path d="M9 16.17L4.83 12l-1.42 1.41L9 19 21 7l-1.41-1.41z"></path></symbol><symbol viewBox="0 0 24 24" id="check-circle" xmlns="http://www.w3.org/2000/svg"><g fill-rule="evenodd"><path d="M12 20.75a8.75 8.75 0 100-17.5 8.75 8.75 0 000 17.5zM12 22C6.477 22 2 17.523 2 12S6.477 2 12 2s10 4.477 10 10-4.477 10-10 10z"></path><path d="M11.597 14.838l5.127-5.127a.248.248 0 00.002-.349l-1.067-1.067a.246.246 0 00-.35.002l-4.774 4.774-1.95-1.95a.24.24 0 00-.344.002l-1.068 1.068a.242.242 0 00-.003.344l3.195 3.194a.24.24 0 00.344-.003l.888-.888z"></path></g></symbol><symbol viewBox="0 0 24 24" id="chevron-down" xmlns="http://www.w3.org/2000/svg"><path fill-rule="evenodd" d="M5.293 8.293a1 1 0 011.414 0L12 13.586l5.293-5.293a1 1 0 111.414 1.414l-6 6a1 1 0 01-1.414 0l-6-6a1 1 0 010-1.414z" clip-rule="evenodd"></path></symbol><symbol viewBox="0 0 24 24" id="chevron-down-circle" xmlns="http://www.w3.org/2000/svg"><path d="M12 2c5.52 0 10 4.48 10 10s-4.48 10-10 10S2 17.52 2 12 6.48 2 12 2zm-5.3 8.704l5.303 5.304 5.304-5.304-1.415-1.414-3.89 3.89-3.888-3.89L6.7 10.704z"></path></symbol><symbol viewBox="0 0 24 24" id="chevron-left" xmlns="http://www.w3.org/2000/svg"><path fill-rule="evenodd" d="M15.707 5.293a1 1 0 010 1.414L10.414 12l5.293 5.293a1 1 0 01-1.414 1.414l-6-6a1 1 0 010-1.414l6-6a1 1 0 011.414 0z" clip-rule="evenodd"></path></symbol><symbol viewBox="0 0 24 24" id="chevron-right" xmlns="http://www.w3.org/2000/svg"><path fill-rule="evenodd" d="M8.293 5.293a1 1 0 011.414 0l6 6a1 1 0 010 1.414l-6 6a1 1 0 01-1.414-1.414L13.586 12 8.293 6.707a1 1 0 010-1.414z" clip-rule="evenodd"></path></symbol><symbol viewBox="0 0 24 24" id="chevron-up" xmlns="http://www.w3.org/2000/svg"><path fill-rule="evenodd" d="M11.293 8.293a1 1 0 011.414 0l6 6a1 1 0 01-1.414 1.414L12 10.414l-5.293 5.293a1 1 0 01-1.414-1.414l6-6z" clip-rule="evenodd"></path></symbol><symbol viewBox="0 0 24 24" id="circle-fill" xmlns="http://www.w3.org/2000/svg"><circle cx="12" cy="12" r="8"></circle></symbol><symbol viewBox="0 0 24 24" id="close" xmlns="http://www.w3.org/2000/svg"><path d="M18.707 6.707a1 1 0 00-1.414-1.414L12 10.586 6.707 5.293a1 1 0 00-1.414 1.414L10.586 12l-5.293 5.293a1 1 0 101.414 1.414L12 13.414l5.293 5.293a1 1 0 001.414-1.414L13.414 12l5.293-5.293z"></path></symbol><symbol viewBox="0 0 24 24" id="close-circle" xmlns="http://www.w3.org/2000/svg"><path d="M12 20.75a8.75 8.75 0 100-17.5 8.75 8.75 0 000 17.5zM12 22C6.477 22 2 17.523 2 12S6.477 2 12 2s10 4.477 10 10-4.477 10-10 10z"></path><rect transform="rotate(-45 12 12)" x="11" y="7" width="2" height="10" rx=".25"></rect><rect transform="rotate(45 12 12)" x="11" y="7" width="2" height="10" rx=".25"></rect></symbol><symbol viewBox="0 0 24 24" id="computer" xmlns="http://www.w3.org/2000/svg"><path d="M0 0h24v24H0z" fill="none"></path><path d="M20 18c1.1 0 1.99-.9 1.99-2L22 6c0-1.1-.9-2-2-2H4c-1.1 0-2 .9-2 2v10c0 1.1.9 2 2 2H0v2h24v-2h-4zM4 6h16v10H4V6z"></path></symbol><symbol viewBox="0 0 24 24" id="content-copy" xmlns="http://www.w3.org/2000/svg"><path d="M0 0h24v24H0z" fill="none"></path><path d="M16 1H4c-1.1 0-2 .9-2 2v14h2V3h12V1zm3 4H8c-1.1 0-2 .9-2 2v14c0 1.1.9 2 2 2h11c1.1 0 2-.9 2-2V7c0-1.1-.9-2-2-2zm0 16H8V7h11v14z"></path></symbol><symbol viewBox="0 0 24 24" id="copy-file" xmlns="http://www.w3.org/2000/svg"><path fill="none" d="M0 0h24v24H0z"></path><path d="M16 1H4c-1.1 0-2 .9-2 2v14h2V3h12V1zm-1 4l6 6v10c0 1.1-.9 2-2 2H7.99C6.89 23 6 22.1 6 21l.01-14c0-1.1.89-2 1.99-2h7zm-1 7h5.5L14 6.5V12z"></path></symbol><symbol viewBox="0 0 24 24" id="credit-card" xmlns="http://www.w3.org/2000/svg"><path d="M0 0h24v24H0z" fill="none"></path><path d="M20 4H4c-1.11 0-1.99.89-1.99 2L2 18c0 1.11.89 2 2 2h16c1.11 0 2-.89 2-2V6c0-1.11-.89-2-2-2zm0 14H4v-6h16v6zm0-10H4V6h16v2z"></path></symbol><symbol viewBox="0 0 24 24" id="description" xmlns="http://www.w3.org/2000/svg"><path d="M0 0h24v24H0z" fill="none"></path><path d="M14 2H6c-1.1 0-1.99.9-1.99 2L4 20c0 1.1.89 2 1.99 2H18c1.1 0 2-.9 2-2V8l-6-6zm2 16H8v-2h8v2zm0-4H8v-2h8v2zm-3-5V3.5L18.5 9H13z"></path></symbol><symbol viewBox="0 0 24 24" id="dots-more" xmlns="http://www.w3.org/2000/svg"><path d="M0 0h24v24H0z" fill="none"></path><path d="M6 10c-1.1 0-2 .9-2 2s.9 2 2 2 2-.9 2-2-.9-2-2-2zm12 0c-1.1 0-2 .9-2 2s.9 2 2 2 2-.9 2-2-.9-2-2-2zm-6 0c-1.1 0-2 .9-2 2s.9 2 2 2 2-.9 2-2-.9-2-2-2z"></path></symbol><symbol viewBox="0 0 24 24" id="download" xmlns="http://www.w3.org/2000/svg"><path fill-rule="evenodd" d="M3 14a1 1 0 011 1v4a1 1 0 001 1h14a1 1 0 001-1v-4a1 1 0 112 0v4a3 3 0 01-3 3H5a3 3 0 01-3-3v-4a1 1 0 011-1z" clip-rule="evenodd"></path><path d="M13 3a1 1 0 10-2 0v9.586L7.707 9.293a1 1 0 00-1.414 1.414l5 5a1 1 0 001.414 0l5-5a1 1 0 00-1.414-1.414L13 12.586V3z"></path></symbol><symbol viewBox="0 0 24 24" id="edit" xmlns="http://www.w3.org/2000/svg"><path d="M0 0h24v24H0V0z" fill="none"></path><path d="M14.06 9.02l.92.92L5.92 19H5v-.92l9.06-9.06M17.66 3c-.25 0-.51.1-.7.29l-1.83 1.83 3.75 3.75 1.83-1.83a.996.996 0 000-1.41l-2.34-2.34c-.2-.2-.45-.29-.71-.29zm-3.6 3.19L3 17.25V21h3.75L17.81 9.94l-3.75-3.75z"></path></symbol><symbol viewBox="0 0 24 24" id="event-available" xmlns="http://www.w3.org/2000/svg"><path d="M0 0h24v24H0z" fill="none"></path><path d="M16.53 11.06L15.47 10l-4.88 4.88-2.12-2.12-1.06 1.06L10.59 17l5.94-5.94zM19 3h-1V1h-2v2H8V1H6v2H5c-1.11 0-1.99.9-1.99 2L3 19a2 2 0 002 2h14c1.1 0 2-.9 2-2V5c0-1.1-.9-2-2-2zm0 16H5V8h14v11z"></path></symbol><symbol viewBox="0 0 24 24" id="explore" xmlns="http://www.w3.org/2000/svg"><path d="M12 10.9c-.61 0-1.1.49-1.1 1.1s.49 1.1 1.1 1.1c.61 0 1.1-.49 1.1-1.1s-.49-1.1-1.1-1.1zM12 2C6.48 2 2 6.48 2 12s4.48 10 10 10 10-4.48 10-10S17.52 2 12 2zm2.19 12.19L6 18l3.81-8.19L18 6l-3.81 8.19z"></path><path d="M0 0h24v24H0z" fill="none"></path></symbol><symbol viewBox="0 0 24 24" id="filter" xmlns="http://www.w3.org/2000/svg"><path d="M10 18h4v-2h-4v2zM3 6v2h18V6H3zm3 7h12v-2H6v2z"></path><path d="M0 0h24v24H0z" fill="none"></path></symbol><symbol viewBox="0 0 24 24" id="help" xmlns="http://www.w3.org/2000/svg"><path d="M0 0h24v24H0z" fill="none"></path><path d="M12 2C6.48 2 2 6.48 2 12s4.48 10 10 10 10-4.48 10-10S17.52 2 12 2zm1 17h-2v-2h2v2zm2.07-7.75l-.9.92C13.45 12.9 13 13.5 13 15h-2v-.5c0-1.1.45-2.1 1.17-2.83l1.24-1.26c.37-.36.59-.86.59-1.41 0-1.1-.9-2-2-2s-2 .9-2 2H8c0-2.21 1.79-4 4-4s4 1.79 4 4c0 .88-.36 1.68-.93 2.25z"></path></symbol><symbol viewBox="0 0 24 24" id="help-circle" xmlns="http://www.w3.org/2000/svg"><path d="M11 18h2v-2h-2v2zm1-16C6.48 2 2 6.48 2 12s4.48 10 10 10 10-4.48 10-10S17.52 2 12 2zm0 18.75c-4.823 0-8.75-3.927-8.75-8.75S7.177 3.25 12 3.25s8.75 3.927 8.75 8.75-3.927 8.75-8.75 8.75zM12 6c-2.21 0-4 1.79-4 4h2c0-1.1.9-2 2-2s2 .9 2 2c0 2-3 1.75-3 5h2c0-2.25 3-2.5 3-5 0-2.21-1.79-4-4-4z"></path></symbol><symbol viewBox="0 0 24 24" id="home" xmlns="http://www.w3.org/2000/svg"><path d="M10 20v-6h4v6h5v-8h3L12 3 2 12h3v8z"></path><path d="M0 0h24v24H0z" fill="none"></path></symbol><symbol viewBox="0 0 24 24" id="hot-fill" xmlns="http://www.w3.org/2000/svg"><path d="M0 0h24v24H0z" fill="none"></path><path d="M13.5.67s.74 2.65.74 4.8c0 2.06-1.35 3.73-3.41 3.73-2.07 0-3.63-1.67-3.63-3.73l.03-.36C5.21 7.51 4 10.62 4 14c0 4.42 3.58 8 8 8s8-3.58 8-8C20 8.61 17.41 3.8 13.5.67zM11.71 19c-1.78 0-3.22-1.4-3.22-3.14 0-1.62 1.05-2.76 2.81-3.12 1.77-.36 3.6-1.21 4.62-2.58.39 1.29.59 2.65.59 4.04 0 2.65-2.15 4.8-4.8 4.8z"></path></symbol><symbol viewBox="0 0 24 24" id="icon-arrow-down" xmlns="http://www.w3.org/2000/svg"><path d="M8.12 9.29L12 13.17l3.88-3.88a.996.996 0 111.41 1.41l-4.59 4.59a.996.996 0 01-1.41 0L6.7 10.7a.996.996 0 010-1.41c.39-.38 1.03-.39 1.42 0z"></path></symbol><symbol viewBox="0 0 24 24" id="icon-articles" xmlns="http://www.w3.org/2000/svg"><path d="M19 5v14H5V5h14zm0-2H5c-1.1 0-2 .9-2 2v14c0 1.1.9 2 2 2h14c1.1 0 2-.9 2-2V5c0-1.1-.9-2-2-2z"></path><path d="M14 16a1 1 0 01-1 1H8a1 1 0 110-2h5a1 1 0 011 1zm3-4a1 1 0 01-1 1H8a1 1 0 110-2h8a1 1 0 011 1zm0-4a1 1 0 01-1 1H8a1 1 0 010-2h8a1 1 0 011 1z"></path></symbol><symbol viewBox="0 0 24 24" id="icon-backpackers-solid" xmlns="http://www.w3.org/2000/svg"><path d="M1 2v21h2v-2h18v2h2V7c0-2.21-1.79-4-4-4h-9v5H3V2H1zm5.5 0a2.5 2.5 0 100 5 2.5 2.5 0 000-5zM3 11h18v2.56c-.59-.35-1.27-.56-2-.56h-9v5H3v-7zm3.5 1a2.5 2.5 0 100 5 2.5 2.5 0 000-5z"></path></symbol><symbol viewBox="0 0 24 24" id="icon-brand-solid" xmlns="http://www.w3.org/2000/svg"><path d="M11.99 2C6.47 2 2 6.48 2 12s4.47 10 9.99 10C17.52 22 22 17.52 22 12S17.52 2 11.99 2zm3.23 15.39L12 15.45l-3.22 1.94a.502.502 0 01-.75-.54l.85-3.66-2.83-2.45a.505.505 0 01.29-.88l3.74-.32 1.46-3.45c.17-.41.75-.41.92 0l1.46 3.44 3.74.32a.5.5 0 01.28.88l-2.83 2.45.85 3.67c.1.43-.36.77-.74.54z"></path></symbol><symbol viewBox="0 0 24 24" id="icon-broadband-solid" xmlns="http://www.w3.org/2000/svg"><path d="M11.45 5.55c.19.19.5.21.72.04C13.3 4.69 14.65 4.2 16 4.2s2.7.49 3.84 1.39c.21.17.52.15.72-.04l.04-.05a.55.55 0 00-.03-.8A7.046 7.046 0 0016 3c-1.62 0-3.24.57-4.57 1.7-.24.21-.26.57-.03.8l.05.05zm1.7.76c-.25.2-.26.58-.04.8l.04.04c.2.2.5.2.72.04.63-.48 1.38-.69 2.13-.69s1.5.21 2.13.68c.22.17.53.16.72-.04l.04-.04c.23-.23.21-.6-.04-.8-.83-.64-1.84-1-2.85-1s-2.02.36-2.85 1.01zM19 13h-2v-3c0-.55-.45-1-1-1s-1 .45-1 1v3H5c-1.1 0-2 .9-2 2v4c0 1.1.9 2 2 2h14c1.1 0 2-.9 2-2v-4c0-1.1-.9-2-2-2zM8 18H6v-2h2v2zm3.5 0h-2v-2h2v2zm3.5 0h-2v-2h2v2z"></path></symbol><symbol viewBox="0 0 24 24" id="icon-broker" xmlns="http://www.w3.org/2000/svg"><path d="M12 12c2.21 0 4-1.79 4-4s-1.79-4-4-4-4 1.79-4 4 1.79 4 4 4zm0 7l-1-1 .5-4-.5-.948c-2.811.27-7 1.59-7 3.948v2c0 .55.45 1 1 1h14c.55 0 1-.45 1-1v-2c0-2.358-4.189-3.679-7-3.948l-.5.948.5 4-1 1z"></path></symbol><symbol viewBox="0 0 24 24" id="icon-business-line" xmlns="http://www.w3.org/2000/svg"><path d="M14 6V4h-4v2h4zM4 9v9c0 .55.45 1 1 1h14c.55 0 1-.45 1-1V9c0-.55-.45-1-1-1H5c-.55 0-1 .45-1 1zm16-3c1.11 0 2 .89 2 2v11c0 1.11-.89 2-2 2H4c-1.11 0-2-.89-2-2l.01-11c0-1.11.88-2 1.99-2h4V4c0-1.11.89-2 2-2h4c1.11 0 2 .89 2 2v2h4z"></path></symbol><symbol viewBox="0 0 24 24" id="icon-business-solid" xmlns="http://www.w3.org/2000/svg"><path d="M20 6h-4V4c0-1.11-.89-2-2-2h-4c-1.11 0-2 .89-2 2v2H4c-1.11 0-1.99.89-1.99 2L2 19c0 1.11.89 2 2 2h16c1.11 0 2-.89 2-2V8c0-1.11-.89-2-2-2zm-6 0h-4V4h4v2z"></path></symbol><symbol viewBox="0 0 24 24" id="icon-camera" xmlns="http://www.w3.org/2000/svg"><path d="M12 15a3 3 0 100-6 3 3 0 000 6z"></path><path d="M20 4h-3.17l-1.24-1.35A1.99 1.99 0 0014.12 2H9.88c-.56 0-1.1.24-1.48.65L7.17 4H4c-1.1 0-2 .9-2 2v12c0 1.1.9 2 2 2h16c1.1 0 2-.9 2-2V6c0-1.1-.9-2-2-2zm-8 13c-2.76 0-5-2.24-5-5s2.24-5 5-5 5 2.24 5 5-2.24 5-5 5z"></path></symbol><symbol viewBox="0 0 24 24" id="icon-car-loans-line" xmlns="http://www.w3.org/2000/svg"><path d="M18.92 6.01C18.72 5.42 18.16 5 17.5 5h-11c-.66 0-1.21.42-1.42 1.01l-1.97 5.67c-.07.21-.11.43-.11.66v7.16c0 .83.67 1.5 1.5 1.5S6 20.33 6 19.5V19h12v.5c0 .82.67 1.5 1.5 1.5.82 0 1.5-.67 1.5-1.5v-7.16c0-.22-.04-.45-.11-.66l-1.97-5.67zM6.5 16c-.83 0-1.5-.67-1.5-1.5S5.67 13 6.5 13s1.5.67 1.5 1.5S7.33 16 6.5 16zm11 0c-.83 0-1.5-.67-1.5-1.5s.67-1.5 1.5-1.5 1.5.67 1.5 1.5-.67 1.5-1.5 1.5zM5 11l1.27-3.82c.14-.4.52-.68.95-.68h9.56c.43 0 .81.28.95.68L19 11H5z"></path></symbol><symbol viewBox="0 0 24 24" id="icon-category-solid" xmlns="http://www.w3.org/2000/svg"><path d="M11.15 3.4L7.43 9.48c-.41.66.07 1.52.85 1.52h7.43c.78 0 1.26-.86.85-1.52L12.85 3.4a.993.993 0 00-1.7 0zM17.5 22a4.5 4.5 0 100-9 4.5 4.5 0 000 9zM4 21.5h6c.55 0 1-.45 1-1v-6c0-.55-.45-1-1-1H4c-.55 0-1 .45-1 1v6c0 .55.45 1 1 1z"></path></symbol><symbol viewBox="0 0 24 24" id="icon-check-circle" xmlns="http://www.w3.org/2000/svg"><path d="M12 2C6.48 2 2 6.48 2 12s4.48 10 10 10 10-4.48 10-10S17.52 2 12 2zM9.29 16.29L5.7 12.7a.996.996 0 111.41-1.41L10 14.17l6.88-6.88a.996.996 0 111.41 1.41l-7.59 7.59a.996.996 0 01-1.41 0z"></path></symbol><symbol viewBox="0 0 24 24" id="icon-cog" xmlns="http://www.w3.org/2000/svg"><path d="M19.5 12c0-.23-.01-.45-.03-.68l1.86-1.41c.4-.3.51-.86.26-1.3l-1.87-3.23a.987.987 0 00-1.25-.42l-2.15.91c-.37-.26-.76-.49-1.17-.68l-.29-2.31c-.06-.5-.49-.88-.99-.88h-3.73c-.51 0-.94.38-1 .88l-.29 2.31c-.41.19-.8.42-1.17.68l-2.15-.91c-.46-.2-1-.02-1.25.42L2.41 8.62c-.25.44-.14.99.26 1.3l1.86 1.41a7.343 7.343 0 000 1.35l-1.86 1.41c-.4.3-.51.86-.26 1.3l1.87 3.23c.25.44.79.62 1.25.42l2.15-.91c.37.26.76.49 1.17.68l.29 2.31c.06.5.49.88.99.88h3.73c.5 0 .93-.38.99-.88l.29-2.31c.41-.19.8-.42 1.17-.68l2.15.91c.46.2 1 .02 1.25-.42l1.87-3.23c.25-.44.14-.99-.26-1.3l-1.86-1.41c.03-.23.04-.45.04-.68zm-7.46 3.5c-1.93 0-3.5-1.57-3.5-3.5s1.57-3.5 3.5-3.5 3.5 1.57 3.5 3.5-1.57 3.5-3.5 3.5z"></path></symbol><symbol viewBox="0 0 24 24" id="icon-credit-cards-line" xmlns="http://www.w3.org/2000/svg"><path d="M20 4H4c-1.11 0-1.99.89-1.99 2L2 18c0 1.11.89 2 2 2h16c1.11 0 2-.89 2-2V6c0-1.11-.89-2-2-2zm-1 14H5c-.55 0-1-.45-1-1v-5h16v5c0 .55-.45 1-1 1zm1-10H4V6h16v2z"></path></symbol><symbol viewBox="0 0 24 24" id="icon-credit-cards-solid" xmlns="http://www.w3.org/2000/svg"><path d="M20 4H4a2 2 0 00-2 2v12a2 2 0 002 2h16a2 2 0 002-2V6a2 2 0 00-2-2zm0 7H4V8h16v3z"></path></symbol><symbol viewBox="0 0 24 24" id="icon-cross" xmlns="http://www.w3.org/2000/svg"><path d="M18.3 5.71a.996.996 0 00-1.41 0L12 10.59 7.11 5.7A.996.996 0 105.7 7.11L10.59 12 5.7 16.89a.996.996 0 101.41 1.41L12 13.41l4.89 4.89a.996.996 0 101.41-1.41L13.41 12l4.89-4.89c.38-.38.38-1.02 0-1.4z"></path></symbol><symbol viewBox="0 0 24 24" id="icon-cycle" xmlns="http://www.w3.org/2000/svg"><path d="M12 5V2.21c0-.45-.54-.67-.85-.35l-3.8 3.79c-.2.2-.2.51 0 .71l3.79 3.79c.32.31.86.09.86-.36V7c3.73 0 6.68 3.42 5.86 7.29-.47 2.27-2.31 4.1-4.57 4.57-3.57.75-6.75-1.7-7.23-5.01a1 1 0 00-.98-.85c-.6 0-1.08.53-1 1.13.62 4.39 4.8 7.64 9.53 6.72 3.12-.61 5.63-3.12 6.24-6.24C20.84 9.48 16.94 5 12 5z"></path></symbol><symbol viewBox="0 0 24 24" id="icon-date" xmlns="http://www.w3.org/2000/svg"><path d="M19 3h-1V2c0-.55-.45-1-1-1s-1 .45-1 1v1H8V2c0-.55-.45-1-1-1s-1 .45-1 1v1H5c-1.11 0-1.99.9-1.99 2L3 19a2 2 0 002 2h14c1.1 0 2-.9 2-2V5c0-1.1-.9-2-2-2zm-1 16H6c-.55 0-1-.45-1-1V8h14v10c0 .55-.45 1-1 1zM8 10h3c.55 0 1 .45 1 1v3c0 .55-.45 1-1 1H8c-.55 0-1-.45-1-1v-3c0-.55.45-1 1-1z"></path></symbol><symbol viewBox="0 0 24 24" id="icon-date-picker" xmlns="http://www.w3.org/2000/svg"><path d="M19 3h-1V2c0-.55-.45-1-1-1s-1 .45-1 1v1H8V2c0-.55-.45-1-1-1s-1 .45-1 1v1H5c-1.11 0-1.99.9-1.99 2L3 19a2 2 0 002 2h14c1.1 0 2-.9 2-2V5c0-1.1-.9-2-2-2zm-1 16H6c-.55 0-1-.45-1-1V8h14v10c0 .55-.45 1-1 1zM8 10h3c.55 0 1 .45 1 1v3c0 .55-.45 1-1 1H8c-.55 0-1-.45-1-1v-3c0-.55.45-1 1-1z"></path></symbol><symbol viewBox="0 0 24 24" id="icon-deals-solid" xmlns="http://www.w3.org/2000/svg"><path d="M21.41 11.58l-9-9C12.05 2.22 11.55 2 11 2H4c-1.1 0-2 .9-2 2v7c0 .55.22 1.05.59 1.42l9 9c.36.36.86.58 1.41.58.55 0 1.05-.22 1.41-.59l7-7c.37-.36.59-.86.59-1.41 0-.55-.23-1.06-.59-1.42zM5.5 7C4.67 7 4 6.33 4 5.5S4.67 4 5.5 4 7 4.67 7 5.5 6.33 7 5.5 7z"></path></symbol><symbol viewBox="0 0 24 24" id="icon-details" xmlns="http://www.w3.org/2000/svg"><path d="M8 17a1 1 0 011-1h6a1 1 0 110 2H9a1 1 0 01-1-1zm0-4a1 1 0 011-1h6a1 1 0 110 2H9a1 1 0 01-1-1zm6-11H6c-1.1 0-2 .9-2 2v16c0 1.1.89 2 1.99 2H18c1.1 0 2-.9 2-2V8l-6-6zm4 18H6V4h7v5h5v11z"></path></symbol><symbol viewBox="0 0 24 24" id="icon-dining" xmlns="http://www.w3.org/2000/svg"><path d="M16 6v6c0 1.1.9 2 2 2h1v7c0 .55.45 1 1 1s1-.45 1-1V3.13c0-.65-.61-1.13-1.24-.98C17.6 2.68 16 4.51 16 6zm-5 3H9V3c0-.55-.45-1-1-1s-1 .45-1 1v6H5V3c0-.55-.45-1-1-1s-1 .45-1 1v6c0 2.21 1.79 4 4 4v8c0 .55.45 1 1 1s1-.45 1-1v-8c2.21 0 4-1.79 4-4V3c0-.55-.45-1-1-1s-1 .45-1 1v6z"></path></symbol><symbol viewBox="0 0 24 24" id="icon-elec-line" xmlns="http://www.w3.org/2000/svg"><path d="M10.67 21c-.35 0-.62-.31-.57-.66L11 14H7.5c-.88 0-.33-.75-.31-.78 1.26-2.23 3.15-5.53 5.65-9.93a.577.577 0 011.07.37l-.9 6.34h3.51c.4 0 .62.19.4.66-3.29 5.74-5.2 9.09-5.75 10.05-.1.18-.29.29-.5.29z"></path></symbol><symbol viewBox="0 0 24 24" id="icon-energy-line" xmlns="http://www.w3.org/2000/svg"><path d="M10.67 21c-.35 0-.62-.31-.57-.66L11 14H7.5c-.88 0-.33-.75-.31-.78 1.26-2.23 3.15-5.53 5.65-9.93a.577.577 0 011.07.37l-.9 6.34h3.51c.4 0 .62.19.4.66-3.29 5.74-5.2 9.09-5.75 10.05-.1.18-.29.29-.5.29z"></path></symbol><symbol viewBox="0 0 24 24" id="icon-exclamation-circle" xmlns="http://www.w3.org/2000/svg"><path d="M12 2C6.48 2 2 6.48 2 12s4.48 10 10 10 10-4.48 10-10S17.52 2 12 2zm0 11c-.55 0-1-.45-1-1V8c0-.55.45-1 1-1s1 .45 1 1v4c0 .55-.45 1-1 1zm1 4h-2v-2h2v2z"></path></symbol><symbol viewBox="0 0 24 24" id="icon-exclusive-deals-solid" xmlns="http://www.w3.org/2000/svg"><path d="M12 17.27l5.17 3.12c.38.23.85-.11.75-.54l-1.37-5.88 4.56-3.95c.33-.29.16-.84-.29-.88l-6.01-.51-2.35-5.54a.498.498 0 00-.92 0L9.19 8.63l-6.01.51a.5.5 0 00-.28.88l4.56 3.95-1.37 5.88c-.1.43.37.77.75.54L12 17.27z"></path></symbol><symbol viewBox="0 0 24 24" id="icon-facebook" xmlns="http://www.w3.org/2000/svg"><path d="M22 12c0-5.52-4.48-10-10-10S2 6.48 2 12c0 4.84 3.44 8.87 8 9.8V15H8v-3h2V9.5C10 7.57 11.57 6 13.5 6H16v3h-2c-.55 0-1 .45-1 1v2h3v3h-3v6.95c5.05-.5 9-4.76 9-9.95z"></path></symbol><symbol viewBox="0 0 24 24" id="icon-facebook-like" xmlns="http://www.w3.org/2000/svg"><path d="M9.01 21H18c.8 0 1.52-.48 1.83-1.21l3.26-7.61c.85-1.98-.6-4.18-2.75-4.18h-5.65l.95-4.58c.1-.5-.05-1.01-.41-1.37-.29-.29-.67-.43-1.05-.43s-.77.15-1.06.44L7.59 7.6c-.37.37-.58.88-.58 1.41V19c0 1.1.9 2 2 2zm4.33-16.33l-.61 2.92-.5 2.41h8.11c.47 0 .72.28.83.45.11.17.27.51.08.95L18 19H9.01V9.01l4.33-4.34zM3 21c1.1 0 2-.9 2-2v-8c0-1.1-.9-2-2-2s-2 .9-2 2v8c0 1.1.9 2 2 2z"></path></symbol><symbol viewBox="0 0 24 24" id="icon-female" xmlns="http://www.w3.org/2000/svg"><path d="M13.75 13a1.25 1.25 0 112.5 0 1.25 1.25 0 01-2.5 0zM22 12v10H2V12C2 6.5 6.5 2 12 2s10 4.5 10 10zM4 12c0 4.41 3.59 8 8 8s8-3.59 8-8c0-.79-.12-1.55-.33-2.26A9.974 9.974 0 019.26 5.77c-.98 2.39-2.85 4.32-5.21 5.37-.05.28-.05.57-.05.86zm5 2.25a1.25 1.25 0 100-2.5 1.25 1.25 0 000 2.5z"></path></symbol><symbol viewBox="0 0 24 24" id="icon-filter" xmlns="http://www.w3.org/2000/svg"><path d="M3 18c0 .55.45 1 1 1h5v-2H4c-.55 0-1 .45-1 1zM3 6c0 .55.45 1 1 1h9V5H4c-.55 0-1 .45-1 1zm10 14v-1h7c.55 0 1-.45 1-1s-.45-1-1-1h-7v-1c0-.55-.45-1-1-1s-1 .45-1 1v4c0 .55.45 1 1 1s1-.45 1-1zM7 10v1H4c-.55 0-1 .45-1 1s.45 1 1 1h3v1c0 .55.45 1 1 1s1-.45 1-1v-4c0-.55-.45-1-1-1s-1 .45-1 1zm14 2c0-.55-.45-1-1-1h-9v2h9c.55 0 1-.45 1-1zm-5-3c.55 0 1-.45 1-1V7h3c.55 0 1-.45 1-1s-.45-1-1-1h-3V4c0-.55-.45-1-1-1s-1 .45-1 1v4c0 .55.45 1 1 1z"></path></symbol><symbol viewBox="0 0 24 24" id="icon-first-buyer" xmlns="http://www.w3.org/2000/svg"><path fill-rule="evenodd" d="M22.2 10.79c.44.33.53.96.19 1.4-.33.44-.96.53-1.4.19l-.99-.76V20c0 .55-.45 1-1 1H5c-.55 0-1-.45-1-1v-8.38l-1 .76c-.44.33-1.06.25-1.4-.19-.33-.44-.25-1.07.19-1.4L4 9.11V7c0-.55.45-1 1-1s1 .45 1 1v.58l5.39-4.12c.35-.27.85-.27 1.21 0l9.6 7.33zM12.25 17c-.41 0-.75-.34-.75-.75V12.5h-.75c-.41 0-.75-.34-.75-.75s.34-.75.75-.75H12c.55 0 1 .45 1 1v4.25c0 .41-.34.75-.75.75z" clip-rule="evenodd"></path><path d="M4.37 3.55c-.36.65.16 1.45.9 1.45.34 0 .69-.16.84-.47.17-.31.51-.53.89-.53 1.13 0 2.11-.62 2.63-1.55C9.99 1.8 9.47 1 8.73 1c-.34 0-.69.16-.84.47-.17.31-.51.53-.89.53-1.13 0-2.11.62-2.63 1.55z"></path></symbol><symbol viewBox="0 0 24 24" id="icon-forex-line" xmlns="http://www.w3.org/2000/svg"><path fill-rule="evenodd" d="M10.88 5H20c1.1 0 2 .9 2 2v13c0 1.1-.9 2-2 2h-8l-1-3H4c-1.1 0-2-.9-2-2V4c0-1.1.9-2 2-2h6l.88 3zM15 19l-.22-.75h4.47v-1.5h-3.91c.381-.5.552-1.093.626-1.588a5.07 5.07 0 00.051-.912h2.233v-1.5h-2.286a5.697 5.697 0 01-.062-.946c.011-.387.078-.732.223-.996.14-.253.355-.44.7-.517.355-.08.868-.046 1.596.196l.329.11V9.095a2.673 2.673 0 00-.564-.213A4.903 4.903 0 0017 8.75c-1.085 0-1.863.483-2.284 1.29-.376.72-.455 1.67-.27 2.71h-.696v1.5h.76a2.943 2.943 0 01-.124.803 2.735 2.735 0 01-.334.72L11.18 6H20c.55 0 1 .45 1 1v13c0 .55-.45 1-1 1h-7l2-2zM4.25 11.75h1.5V12c0 .158.102.34.333.495.228.152.554.255.917.255s.689-.103.917-.255c.231-.155.333-.337.333-.495a.375.375 0 00-.057-.216.6.6 0 00-.214-.181c-.232-.132-.602-.241-1.158-.375l-.02-.005c-.518-.13-1.145-.286-1.641-.597-.522-.326-.91-.83-.91-1.626 0-.983.754-1.78 1.75-2.099V5.75h2v1.151C8.996 7.22 9.75 8.017 9.75 9v.25h-1.5V9c0-.158-.102-.34-.333-.495A1.676 1.676 0 007 8.25a1.68 1.68 0 00-.917.255c-.231.155-.333.337-.333.495a.38.38 0 00.057.216.599.599 0 00.214.181c.232.132.602.241 1.158.375l.02.005c.518.13 1.145.286 1.641.597.522.326.91.83.91 1.626 0 .983-.754 1.78-1.75 2.099v1.151H6v-1.151C5.004 13.78 4.25 12.983 4.25 12v-.25z" clip-rule="evenodd"></path></symbol><symbol viewBox="0 0 24 24" id="icon-forex-solid" xmlns="http://www.w3.org/2000/svg"><path fill-rule="evenodd" d="M10.88 5H20c1.1 0 2 .9 2 2v13c0 1.1-.9 2-2 2h-8l-1-3H4c-1.1 0-2-.9-2-2V4c0-1.1.9-2 2-2h6l.88 3zM15 19l-.22-.75h4.47v-1.5h-3.91c.381-.5.552-1.093.626-1.588a5.07 5.07 0 00.051-.912h2.233v-1.5h-2.286a5.697 5.697 0 01-.062-.946c.011-.387.078-.732.223-.996.14-.253.355-.44.7-.517.355-.08.868-.046 1.596.196l.329.11V9.095a2.673 2.673 0 00-.564-.213A4.903 4.903 0 0017 8.75c-1.085 0-1.863.483-2.284 1.29-.376.72-.455 1.67-.27 2.71h-.696v1.5h.76a2.943 2.943 0 01-.124.803 2.735 2.735 0 01-.334.72L11.18 6H20c.55 0 1 .45 1 1v13c0 .55-.45 1-1 1h-7l2-2zM4.25 11.75h1.5V12c0 .158.102.34.333.495.228.152.554.255.917.255s.689-.103.917-.255c.231-.155.333-.337.333-.495a.375.375 0 00-.057-.216.6.6 0 00-.214-.181c-.232-.132-.602-.241-1.158-.375l-.02-.005c-.518-.13-1.145-.286-1.641-.597-.522-.326-.91-.83-.91-1.626 0-.983.754-1.78 1.75-2.099V5.75h2v1.151C8.996 7.22 9.75 8.017 9.75 9v.25h-1.5V9c0-.158-.102-.34-.333-.495A1.676 1.676 0 007 8.25a1.68 1.68 0 00-.917.255c-.231.155-.333.337-.333.495a.38.38 0 00.057.216.599.599 0 00.214.181c.232.132.602.241 1.158.375l.02.005c.518.13 1.145.286 1.641.597.522.326.91.83.91 1.626 0 .983-.754 1.78-1.75 2.099v1.151H6v-1.151C5.004 13.78 4.25 12.983 4.25 12v-.25z" clip-rule="evenodd"></path></symbol><symbol viewBox="0 0 24 24" id="icon-free-shipping" xmlns="http://www.w3.org/2000/svg"><path d="M19.5 8H17V6c0-1.1-.9-2-2-2H3c-1.1 0-2 .9-2 2v9c0 1.1.9 2 2 2 0 1.66 1.34 3 3 3s3-1.34 3-3h6c0 1.66 1.34 3 3 3s3-1.34 3-3h1c.55 0 1-.45 1-1v-3.33c0-.43-.14-.85-.4-1.2L20.3 8.4c-.19-.25-.49-.4-.8-.4zM6 18c-.55 0-1-.45-1-1s.45-1 1-1 1 .45 1 1-.45 1-1 1zm13.5-8.5l1.96 2.5H17V9.5h2.5zM18 18c-.55 0-1-.45-1-1s.45-1 1-1 1 .45 1 1-.45 1-1 1z"></path></symbol><symbol viewBox="0 0 24 24" id="icon-funeral-solid" xmlns="http://www.w3.org/2000/svg"><path d="M10 2h4c3.31 0 5 2.69 5 6v10.66C16.88 17.63 15.07 17 12 17s-4.88.63-7 1.66V8c0-3.31 1.69-6 5-6zM8 8v1.5h8V8H8zm1 4v1.5h6V12H9zM3 22v-.69c2.66-1.69 10.23-5.47 18-.06V22H3z"></path></symbol><symbol viewBox="0 0 24 24" id="icon-gas-line" xmlns="http://www.w3.org/2000/svg"><path d="M19.48 12.35c-1.57-4.08-7.16-4.3-5.81-10.23.1-.44-.37-.78-.75-.55C9.29 3.71 6.68 8 8.87 13.62c.18.46-.36.89-.75.59-1.81-1.37-2-3.34-1.84-4.75.06-.52-.62-.77-.91-.34C4.69 10.16 4 11.84 4 14.37c.38 5.6 5.11 7.32 6.81 7.54 2.43.31 5.06-.14 6.95-1.87 2.08-1.93 2.84-5.01 1.72-7.69zm-9.28 5.03c1.44-.35 2.18-1.39 2.38-2.31.33-1.43-.96-2.83-.09-5.09.33 1.87 3.27 3.04 3.27 5.08.08 2.53-2.66 4.7-5.56 2.32z"></path></symbol><symbol viewBox="0 0 24 24" id="icon-get-deal" xmlns="http://www.w3.org/2000/svg"><path d="M21.41 11.58l-9-9C12.04 2.21 11.53 2 11 2H4c-1.1 0-2 .9-2 2v7c0 .53.21 1.04.59 1.41l.41.4c.9-.54 1.94-.81 3-.81 3.31 0 6 2.69 6 6 0 1.06-.28 2.09-.82 3l.4.4c.37.38.89.6 1.42.6.53 0 1.04-.21 1.41-.59l7-7c.38-.37.59-.88.59-1.41 0-.53-.21-1.04-.59-1.42zM5.5 7C4.67 7 4 6.33 4 5.5S4.67 4 5.5 4 7 4.67 7 5.5 6.33 7 5.5 7zM6 17H2v2h4v2l3-3-3-3v2z"></path></symbol><symbol viewBox="0 0 24 24" id="icon-gift" xmlns="http://www.w3.org/2000/svg"><path d="M22 12v8a2 2 0 01-2 2H4a2 2 0 01-2-2v-8a1 1 0 01-1-1V8a2 2 0 012-2h3.17A3 3 0 019 2c1 0 1.88.5 2.43 1.24v-.01L12 4l.57-.77v.01C13.12 2.5 14 2 15 2a3 3 0 012.83 4H21a2 2 0 012 2v3a1 1 0 01-1 1zM4 20h7v-8H4v8zm16 0v-8h-7v8h7zM9 4a1 1 0 100 2 1 1 0 000-2zm6 0a1 1 0 100 2 1 1 0 000-2zM3 8v2h8V8H3zm10 0v2h8V8h-8z"></path></symbol><symbol viewBox="0 0 24 24" id="icon-googleplus" xmlns="http://www.w3.org/2000/svg"><path d="M23 11h-2V9h-2v2h-2v2h2v2h2v-2h2v-2zM8 11v2.4h4c-.2 1-1.2 3-4 3-2.4 0-4.3-2-4.3-4.4 0-2.4 1.9-4.4 4.3-4.4 1.4 0 2.3.6 2.8 1.1l1.9-1.8C11.5 5.7 9.9 5 8 5c-3.9 0-7 3.1-7 7s3.1 7 7 7c4 0 6.7-2.8 6.7-6.8 0-.5 0-.8-.1-1.2H8z"></path></symbol><symbol viewBox="0 0 24 24" id="icon-health" xmlns="http://www.w3.org/2000/svg"><path d="M19 8c.56 0 1 .43 1 1a1 1 0 01-1 1c-.57 0-1-.45-1-1 0-.57.43-1 1-1zM3 2a1 1 0 00-1 1v8c0 2.96 2.19 5.5 5.14 5.91.62 3.01 3.28 5.09 6.36 5.09a6.499 6.499 0 006.5-6.5v-3.69c1.16-.42 2-1.52 2-2.81a3 3 0 00-6 0c0 1.29.84 2.4 2 2.81v3.6c0 2.5-2 4.5-4.5 4.5-2 0-3.68-1.21-4.28-3.01C12 16.3 14 13.8 14 11V3a1 1 0 00-1-1h-2a1 1 0 100 2h1v7a4 4 0 11-8 0V4h1a1 1 0 000-2H3z"></path></symbol><symbol viewBox="0 0 24 24" id="icon-home-loans-line" xmlns="http://www.w3.org/2000/svg"><path d="M12 5.69l5 4.5V18h-2v-6H9v6H7v-7.81l5-4.5zM12 3l-9.031 8.128a.5.5 0 00.334.872H5v7a1 1 0 001 1h4a1 1 0 001-1v-5h2v5a1 1 0 001 1h4a1 1 0 001-1v-7h1.697a.5.5 0 00.335-.872L12 3z"></path></symbol><symbol viewBox="0 0 24 24" id="icon-home-loans-solid" xmlns="http://www.w3.org/2000/svg"><path d="M10 19v-5h4v5c0 .55.45 1 1 1h3c.55 0 1-.45 1-1v-7h1.7c.46 0 .68-.57.33-.87L12.67 3.6c-.38-.34-.96-.34-1.34 0l-8.36 7.53c-.34.3-.13.87.33.87H5v7c0 .55.45 1 1 1h3c.55 0 1-.45 1-1z"></path></symbol><symbol viewBox="0 0 24 24" id="icon-hotel-line" xmlns="http://www.w3.org/2000/svg"><path d="M7 13c1.66 0 3-1.34 3-3S8.66 7 7 7s-3 1.34-3 3 1.34 3 3 3zm12-6h-6c-1.1 0-2 .9-2 2v5H3V6c0-.55-.45-1-1-1s-1 .45-1 1v13c0 .55.45 1 1 1s1-.45 1-1v-2h18v2c0 .55.45 1 1 1s1-.45 1-1v-8c0-2.21-1.79-4-4-4z"></path></symbol><symbol viewBox="0 0 24 24" id="icon-hotel-solid" xmlns="http://www.w3.org/2000/svg"><path d="M7 13c1.66 0 3-1.34 3-3S8.66 7 7 7s-3 1.34-3 3 1.34 3 3 3zm12-6h-6c-1.1 0-2 .9-2 2v5H3V6c0-.55-.45-1-1-1s-1 .45-1 1v13c0 .55.45 1 1 1s1-.45 1-1v-2h18v2c0 .55.45 1 1 1s1-.45 1-1v-8c0-2.21-1.79-4-4-4z"></path></symbol><symbol viewBox="0 0 24 24" id="icon-income-protect-line" xmlns="http://www.w3.org/2000/svg"><path d="M11 17v-1H9v-2h4.004v-1H10a1 1 0 01-1-1V9a1 1 0 011-1h1V7h2v1h2v2h-4v1h3a1 1 0 011 1v3a1 1 0 01-1 1h-.996v1H11z"></path><path fill-rule="evenodd" d="M11.3 2.26c.45-.17.95-.17 1.4 0l6 2.25c.78.3 1.3 1.04 1.3 1.88v4.7c0 4.94-3.27 9.57-7.72 10.83-.18.05-.38.05-.57 0C7.27 20.66 4 16.03 4 11.09v-4.7c0-.84.52-1.58 1.3-1.88l6-2.25zm.7 1.873l5.985 2.245a.045.045 0 01.01.006l.003.003.002.001v4.702c0 4.042-2.632 7.727-6.005 8.826C8.633 18.817 6 15.132 6 11.09V6.388l.005-.004a.047.047 0 01.01-.006L12 4.133z" clip-rule="evenodd"></path></symbol><symbol viewBox="0 0 24 24" id="icon-income-protect-solid" xmlns="http://www.w3.org/2000/svg"><path fill-rule="evenodd" d="M12.7 2.26l6 2.25c.78.3 1.3 1.04 1.3 1.88v4.7c0 4.94-3.27 9.57-7.72 10.83-.18.05-.38.05-.57 0C7.27 20.66 4 16.03 4 11.09v-4.7c0-.84.52-1.58 1.3-1.88l6-2.25c.45-.17.95-.17 1.4 0zM11 16v1h2.004v-1H14a1 1 0 001-1v-3a1 1 0 00-1-1h-3v-1h4V8h-2V7h-2v1h-1a1 1 0 00-1 1v3a1 1 0 001 1h3.004v1H9v2h2z" clip-rule="evenodd"></path></symbol><symbol viewBox="0 0 24 24" id="icon-info-solid" xmlns="http://www.w3.org/2000/svg"><path d="M12 2C6.48 2 2 6.48 2 12s4.48 10 10 10 10-4.48 10-10S17.52 2 12 2zm0 15c-.55 0-1-.45-1-1v-4c0-.55.45-1 1-1s1 .45 1 1v4c0 .55-.45 1-1 1zm1-8h-2V7h2v2z"></path></symbol><symbol viewBox="0 0 24 24" id="icon-insurance-line" xmlns="http://www.w3.org/2000/svg"><path d="M12 4C8.9 4 6.18 6.03 5.3 9h13.4A7 7 0 0012 4zm0-2a9 9 0 019 9h-8v8a3 3 0 01-6 0v-1h2v1a1 1 0 102 0v-8H3a9 9 0 019-9z"></path></symbol><symbol viewBox="0 0 24 24" id="icon-internettv-line" xmlns="http://www.w3.org/2000/svg"><path d="M20 3H4c-1.1 0-2 .9-2 2v12c0 1.1.9 2 2 2h4v1c0 .55.45 1 1 1h6c.55 0 1-.45 1-1v-1h4c1.1 0 1.99-.9 1.99-2L22 5c0-1.1-.9-2-2-2zm0 14H4V5h16v12zM7 15.97A2.007 2.007 0 005.03 14H5v2h2v-.03zm-1.38-3.42c1.44.26 2.58 1.4 2.83 2.84.06.36.37.61.73.61.46 0 .82-.41.75-.86a4.998 4.998 0 00-4.06-4.06.746.746 0 00-.87.74c0 .37.26.67.62.73zm.02-3.02c3.07.3 5.52 2.75 5.83 5.82.04.37.37.65.74.65.45 0 .79-.4.75-.85a8.001 8.001 0 00-7.11-7.1.756.756 0 00-.85.74c0 .37.27.71.64.74z"></path></symbol><symbol viewBox="0 0 24 24" id="icon-investment" xmlns="http://www.w3.org/2000/svg"><path d="M16.85 6.85l1.44 1.44-4.88 4.88-3.29-3.29a.996.996 0 00-1.41 0l-6 6.01a.996.996 0 101.41 1.41L9.41 12l3.29 3.29c.39.39 1.02.39 1.41 0l5.59-5.58 1.44 1.44a.5.5 0 00.85-.35V6.5a.48.48 0 00-.49-.5h-4.29a.5.5 0 00-.36.85z"></path></symbol><symbol viewBox="0 0 24 24" id="icon-lightbulb" xmlns="http://www.w3.org/2000/svg"><path d="M20 11h3v2h-3v-2zM1 11h3v2H1v-2zM13 1v3h-2V1h2zM4.92 3.5l2.13 2.14-1.42 1.41L3.5 4.93 4.92 3.5zm12.03 2.13l2.12-2.13 1.43 1.43-2.13 2.12-1.42-1.42zM12 6a6 6 0 016 6c0 2.22-1.21 4.16-3 5.2V19a1 1 0 01-1 1h-4a1 1 0 01-1-1v-1.8c-1.79-1.04-3-2.98-3-5.2a6 6 0 016-6zm2 15v1a1 1 0 01-1 1h-2a1 1 0 01-1-1v-1h4zm-3-3h2v-2.13c1.73-.44 3-2.01 3-3.87a4 4 0 10-8 0c0 1.86 1.27 3.43 3 3.87V18z"></path></symbol><symbol viewBox="0 0 24 24" id="icon-linkedin" xmlns="http://www.w3.org/2000/svg"><path d="M19 3a2 2 0 012 2v14a2 2 0 01-2 2H5a2 2 0 01-2-2V5a2 2 0 012-2h14zm-.5 15.5v-5.3a3.26 3.26 0 00-3.26-3.26c-.85 0-1.84.52-2.32 1.3v-1.11h-2.79v8.37h2.79v-4.93c0-.77.62-1.4 1.39-1.4a1.4 1.4 0 011.4 1.4v4.93h2.79zM6.88 8.56a1.68 1.68 0 001.68-1.68c0-.93-.75-1.69-1.68-1.69a1.69 1.69 0 00-1.69 1.69c0 .93.76 1.68 1.69 1.68zm1.39 9.94v-8.37H5.5v8.37h2.77z"></path></symbol><symbol viewBox="0 0 24 24" id="icon-loans-line" xmlns="http://www.w3.org/2000/svg"><path d="M19 16h-2c0-1.2-.75-2.28-1.87-2.7L8.97 11H1v11h6v-1.44l7 1.94 8-2.5v-1c0-1.66-1.34-3-3-3zM3 20v-7h2v7H3zm10.97.41L7 18.48V13h1.61l5.82 2.17c.34.13.57.46.57.83 0 0-1.99-.05-2.3-.15l-2.38-.79-.63 1.9 2.38.79c.51.17 1.04.26 1.58.26H19c.39 0 .74.23.9.56l-5.93 1.84zM15 11v1h2.004v-1H18a1 1 0 001-1V7a1 1 0 00-1-1h-3V5h4V3h-2V2h-2v1h-1a1 1 0 00-1 1v3a1 1 0 001 1h3.004v1H13v2h2z"></path></symbol><symbol viewBox="0 0 24 24" id="icon-loans-solid" xmlns="http://www.w3.org/2000/svg"><path d="M3 11c-1.1 0-2 .9-2 2v7c0 1.1.9 2 2 2s2-.9 2-2v-7c0-1.1-.9-2-2-2zm16.99 6h-6.83a.96.96 0 01-.33-.06l-1.47-.51a.49.49 0 01-.3-.63c.09-.26.38-.4.64-.3l1.12.43c.11.04.24.07.36.07h2.63c.65 0 1.18-.53 1.18-1.18 0-.49-.31-.93-.77-1.11L9.3 11.13c-.22-.09-.46-.13-.7-.13H7v9.02l6.37 1.81c.41.12.85.1 1.25-.05L22 19c0-1.11-.9-2-2.01-2zM15 11v1h2.004v-1H18a1 1 0 001-1V7a1 1 0 00-1-1h-3V5h4V3h-2V2h-2v1h-1a1 1 0 00-1 1v3a1 1 0 001 1h3.004v1H13v2h2z"></path></symbol><symbol viewBox="0 0 24 24" id="icon-location" xmlns="http://www.w3.org/2000/svg"><path d="M12 2c-4.2 0-8 3.22-8 8.2 0 3.18 2.45 6.92 7.34 11.23.38.33.95.33 1.33 0C17.55 17.12 20 13.38 20 10.2 20 5.22 16.2 2 12 2zm0 10c-1.1 0-2-.9-2-2s.9-2 2-2 2 .9 2 2-.9 2-2 2z"></path></symbol><symbol viewBox="0 0 24 24" id="icon-lowrate" xmlns="http://www.w3.org/2000/svg"><path d="M12.063 6.293a.996.996 0 00-1.41 0l-6.36 6.36a.996.996 0 101.41 1.41l6.36-6.36a.996.996 0 000-1.41zm-6.391 2.89a1.5 1.5 0 100-3 1.5 1.5 0 000 3zm5 5a1.5 1.5 0 100-3 1.5 1.5 0 000 3zM18 5v11.23h1.8c.44 0 .67.54.35.85l-2.79 2.78c-.2.19-.51.19-.71 0l-2.79-2.78c-.32-.31-.1-.85.35-.85H16V5c0-.55.45-1 1-1s1 .45 1 1z"></path></symbol><symbol viewBox="0 0 24 24" id="icon-mail" xmlns="http://www.w3.org/2000/svg"><path d="M20 4H4c-1.1 0-1.99.9-1.99 2L2 18c0 1.1.9 2 2 2h16c1.1 0 2-.9 2-2V6c0-1.1-.9-2-2-2zm-1 14H5c-.55 0-1-.45-1-1V8l6.94 4.34c.65.41 1.47.41 2.12 0L20 8v9c0 .55-.45 1-1 1zm-7-7L4 6h16l-8 5z"></path></symbol><symbol viewBox="0 0 24 24" id="icon-male" xmlns="http://www.w3.org/2000/svg"><path d="M9 11.75a1.25 1.25 0 100 2.5 1.25 1.25 0 000-2.5zm6 0a1.25 1.25 0 100 2.5 1.25 1.25 0 000-2.5zM12 2a10 10 0 100 20 10 10 0 000-20zm0 18c-4.41 0-8-3.59-8-8 0-.29 0-.58.05-.86 2.36-1.05 4.23-2.98 5.21-5.37a9.974 9.974 0 0010.41 3.97c.21.71.33 1.47.33 2.26 0 4.41-3.59 8-8 8z"></path></symbol><symbol viewBox="0 0 24 24" id="icon-minus" xmlns="http://www.w3.org/2000/svg"><path d="M18 13H6c-.55 0-1-.45-1-1s.45-1 1-1h12c.55 0 1 .45 1 1s-.45 1-1 1z"></path></symbol><symbol viewBox="0 0 24 24" id="icon-mobile" xmlns="http://www.w3.org/2000/svg"><path d="M15.5 1h-8A2.5 2.5 0 005 3.5v17A2.5 2.5 0 007.5 23h8a2.5 2.5 0 002.5-2.5v-17A2.5 2.5 0 0015.5 1zm-4 21c-.83 0-1.5-.67-1.5-1.5s.67-1.5 1.5-1.5 1.5.67 1.5 1.5-.67 1.5-1.5 1.5zm4.5-4H7V4h9v14z"></path></symbol><symbol viewBox="0 0 24 24" id="icon-multi-trip" xmlns="http://www.w3.org/2000/svg"><path d="M21.5 14.58c0-.36-.19-.69-.49-.89L13.5 9V3.5c0-.83-.67-1.5-1.5-1.5s-1.5.67-1.5 1.5V9l-7.51 4.69a1.05 1.05 0 00.87 1.89l6.64-2.08V19l-1.8 1.35a.48.48 0 00-.2.4v.59c0 .33.32.57.64.48L12 21l2.86.82c.32.09.64-.15.64-.48v-.59a.48.48 0 00-.2-.4L13.5 19v-5.5l6.64 2.08c.68.21 1.36-.3 1.36-1z"></path><path d="M20 3h-2v2h-2v2h2v2h2V7h2V5h-2V3z"></path></symbol><symbol viewBox="0 0 24 24" id="icon-nbntracker-solid" xmlns="http://www.w3.org/2000/svg"><path d="M12 6C8.62 6 5.5 7.12 3 9L1.2 6.6C4.21 4.34 7.95 3 12 3c4.05 0 7.79 1.34 10.8 3.6L21 9c-2.5-1.88-5.62-3-9-3zm1 9.09c-.31-.06-.65-.09-1-.09-1.35 0-2.6.45-3.6 1.2L12 21l1.8-2.4c-.47-1.02-.8-2.1-.8-3.1v-.41zM12 9c-2.7 0-5.19.89-7.2 2.4l1.8 2.4C8.1 12.67 9.97 12 12 12c.73 0 1.43.09 2.1.25.76-1 1.83-1.75 3.07-2.07A11.96 11.96 0 0012 9zm10 6.5c0 2.6-3.5 6.5-3.5 6.5S15 18.1 15 15.5c0-1.9 1.6-3.5 3.5-3.5s3.5 1.6 3.5 3.5zm-2.3.1c0-.6-.6-1.2-1.2-1.2s-1.2.5-1.2 1.2c0 .6.5 1.2 1.2 1.2s1.3-.6 1.2-1.2z"></path></symbol><symbol viewBox="0 0 24 24" id="icon-pet-insurance-line" xmlns="http://www.w3.org/2000/svg"><path d="M4.5 12a2.5 2.5 0 100-5 2.5 2.5 0 000 5zM9 8a2.5 2.5 0 100-5 2.5 2.5 0 000 5zm6 0a2.5 2.5 0 100-5 2.5 2.5 0 000 5zm4.5 4a2.5 2.5 0 100-5 2.5 2.5 0 000 5z"></path><path fill-rule="evenodd" d="M15.87 16.218l-.052-.06c-.32-.375-.617-.725-.907-1.068-.513-.604-1.006-1.185-1.565-1.833l-.009-.01c-.459-.539-.71-.747-1.337-.747-.645 0-.847.184-1.355.766l-.878 1.033c-.522.614-1.034 1.218-1.603 1.878l-.048.055-.052.052-.242.242c-.608.605-1.081 1.076-1.43 1.591-.312.46-.414.802-.396 1.126.074.204.175.374.289.498.429.466 1.177.191 1.719.12.067-.01.137-.018.21-.028.986-.129 2.303-.293 3.686-.293h.18c1.38 0 2.695.161 3.683.29l.242.03c.536.07 1.265.34 1.688-.121.116-.127.219-.3.293-.503.02-.33-.082-.672-.391-1.13-.348-.516-.82-.987-1.43-1.593l-.24-.239-.055-.056zm4.08 3.442c-.29 1.01-1.02 2.03-2.33 2.32-.336.064-1.01-.024-1.883-.137-1.024-.134-2.318-.303-3.657-.303h-.18c-1.328 0-2.612.169-3.631.303-.885.117-1.57.207-1.91.137-1.31-.29-2.04-1.3-2.33-2.32-.281-1.908 1.125-3.304 2.383-4.553l.238-.237a284.74 284.74 0 001.584-1.856l.896-1.054c.47-.54 1.05-1.08 1.75-1.32.11-.04.22-.07.33-.09.26-.05.53-.05.79-.05s.53 0 .78.04c.11.02.22.05.33.09.7.24 1.29.78 1.75 1.32.564.654 1.066 1.246 1.584 1.856l.896 1.054.236.235c1.259 1.25 2.665 2.646 2.374 4.565z" clip-rule="evenodd"></path></symbol><symbol viewBox="0 0 24 24" id="icon-pet-insurance-solid" xmlns="http://www.w3.org/2000/svg"><path d="M4.5 12a2.5 2.5 0 100-5 2.5 2.5 0 000 5zM9 8a2.5 2.5 0 100-5 2.5 2.5 0 000 5zm6 0a2.5 2.5 0 100-5 2.5 2.5 0 000 5zm4.5 4a2.5 2.5 0 100-5 2.5 2.5 0 000 5zm-2.16 2.86c-.87-1.02-1.6-1.89-2.48-2.91-.46-.54-1.05-1.08-1.75-1.32-.11-.04-.22-.07-.33-.09-.25-.04-.52-.04-.78-.04s-.53 0-.79.05c-.11.02-.22.05-.33.09-.7.24-1.28.78-1.75 1.32-.87 1.02-1.6 1.89-2.48 2.91-1.31 1.31-2.92 2.76-2.62 4.79.29 1.02 1.02 2.03 2.33 2.32.73.15 3.06-.44 5.54-.44h.18c2.48 0 4.81.58 5.54.44 1.31-.29 2.04-1.31 2.33-2.32.31-2.04-1.3-3.49-2.61-4.8z"></path></symbol><symbol viewBox="0 0 24 24" id="icon-phone-line" xmlns="http://www.w3.org/2000/svg"><path d="M17 1.01L7 1c-1.1 0-2 .9-2 2v18c0 1.1.9 2 2 2h10c1.1 0 2-.9 2-2V3c0-1.1-.9-1.99-2-1.99zM17 19H7V5h10v14z"></path></symbol><symbol viewBox="0 0 24 24" id="icon-phone-solid" xmlns="http://www.w3.org/2000/svg"><path d="M15.5 1h-8A2.5 2.5 0 005 3.5v17A2.5 2.5 0 007.5 23h8a2.5 2.5 0 002.5-2.5v-17A2.5 2.5 0 0015.5 1zm-4 21c-.83 0-1.5-.67-1.5-1.5s.67-1.5 1.5-1.5 1.5.67 1.5 1.5-.67 1.5-1.5 1.5zm4.5-4H7V4h9v14z"></path></symbol><symbol viewBox="0 0 24 24" id="icon-plus" xmlns="http://www.w3.org/2000/svg"><path d="M18 13h-5v5c0 .55-.45 1-1 1s-1-.45-1-1v-5H6c-.55 0-1-.45-1-1s.45-1 1-1h5V6c0-.55.45-1 1-1s1 .45 1 1v5h5c.55 0 1 .45 1 1s-.45 1-1 1z"></path></symbol><symbol viewBox="0 0 24 24" id="icon-pointer-down-solid" xmlns="http://www.w3.org/2000/svg"><path d="M11 5v11.17l-4.88-4.88c-.39-.39-1.03-.39-1.42 0a.996.996 0 000 1.41l6.59 6.59c.39.39 1.02.39 1.41 0l6.59-6.59a.996.996 0 10-1.41-1.41L13 16.17V5c0-.55-.45-1-1-1s-1 .45-1 1z"></path></symbol><symbol viewBox="0 0 24 24" id="icon-pointer-right-solid" xmlns="http://www.w3.org/2000/svg"><path d="M5 13h11.17l-4.88 4.88c-.39.39-.39 1.03 0 1.42.39.39 1.02.39 1.41 0l6.59-6.59a.996.996 0 000-1.41l-6.58-6.6a.996.996 0 10-1.41 1.41L16.17 11H5c-.55 0-1 .45-1 1s.45 1 1 1z"></path></symbol><symbol viewBox="0 0 24 24" id="icon-pointer-up-solid" xmlns="http://www.w3.org/2000/svg"><path d="M13 19V7.83l4.88 4.88c.39.39 1.03.39 1.42 0a.996.996 0 000-1.41l-6.59-6.59a.996.996 0 00-1.41 0l-6.6 6.58a.996.996 0 101.41 1.41L11 7.83V19c0 .55.45 1 1 1s1-.45 1-1z"></path></symbol><symbol viewBox="0 0 24 24" id="icon-products" xmlns="http://www.w3.org/2000/svg"><path d="M5 3a2 2 0 00-2 2v4a2 2 0 002 2h4a2 2 0 002-2V5a2 2 0 00-2-2H5zm4 6H5V5h4v4zm-4 4a2 2 0 00-2 2v4a2 2 0 002 2h4a2 2 0 002-2v-4a2 2 0 00-2-2H5zm4 6H5v-4h4v4zm6-16a2 2 0 00-2 2v4a2 2 0 002 2h4a2 2 0 002-2V5a2 2 0 00-2-2h-4zm4 6h-4V5h4v4zm-4 4a2 2 0 00-2 2v4a2 2 0 002 2h4a2 2 0 002-2v-4a2 2 0 00-2-2h-4zm4 6h-4v-4h4v4z"></path></symbol><symbol viewBox="0 0 24 24" id="icon-question" xmlns="http://www.w3.org/2000/svg"><path d="M12 2C6.48 2 2 6.48 2 12s4.48 10 10 10 10-4.48 10-10S17.52 2 12 2zm0 18c-4.41 0-8-3.59-8-8s3.59-8 8-8 8 3.59 8 8-3.59 8-8 8zm-1-4h2v2h-2v-2zm1.61-9.96c-2.06-.3-3.88.97-4.43 2.79-.18.58.26 1.17.87 1.17h.2c.41 0 .74-.29.88-.67.32-.89 1.27-1.5 2.3-1.28.95.2 1.65 1.13 1.57 2.1-.1 1.34-1.62 1.63-2.45 2.88 0 .01-.01.01-.01.02-.01.02-.02.03-.03.05-.09.15-.18.32-.25.5-.01.03-.03.05-.04.08-.01.02-.01.04-.02.07-.12.34-.2.75-.2 1.25h2c0-.42.11-.77.28-1.07.02-.03.03-.06.05-.09.08-.14.18-.27.28-.39.01-.01.02-.03.03-.04.1-.12.21-.23.33-.34.96-.91 2.26-1.65 1.99-3.56-.24-1.74-1.61-3.21-3.35-3.47z"></path></symbol><symbol viewBox="0 0 24 24" id="icon-question-solid" xmlns="http://www.w3.org/2000/svg"><path d="M12 2C6.48 2 2 6.48 2 12s4.48 10 10 10 10-4.48 10-10S17.52 2 12 2zm1 17h-2v-2h2v2zm2.07-7.75l-.9.92C13.45 12.9 13 13.5 13 15h-2v-.5c0-1.1.45-2.1 1.17-2.83l1.24-1.26c.37-.36.59-.86.59-1.41 0-1.1-.9-2-2-2s-2 .9-2 2H8c0-2.21 1.79-4 4-4s4 1.79 4 4c0 .88-.36 1.68-.93 2.25z"></path></symbol><symbol viewBox="0 0 24 24" id="icon-receive-currency" xmlns="http://www.w3.org/2000/svg"><path d="M16 16v1h2.004v-1H19a1 1 0 001-1v-3a1 1 0 00-1-1h-3v-1h4V8h-2V7h-2v1h-1a1 1 0 00-1 1v3a1 1 0 001 1h3.004v1H14v2h2zM4 10.999h4.23v-1.8c0-.44.54-.67.85-.35l2.78 2.79c.19.2.19.51 0 .71l-2.78 2.79c-.31.32-.85.1-.85-.35v-1.79H4c-.55 0-1-.45-1-1s.45-1 1-1z"></path></symbol><symbol viewBox="0 0 24 24" id="icon-refinance" xmlns="http://www.w3.org/2000/svg"><path d="M4.4 9.598c-.655 2.064-.493 4.384.672 6.402 1.9 3.29 5.793 4.715 9.273 3.641.453-.134.939.047 1.174.454a1.014 1.014 0 01-.584 1.469C10.58 22.9 5.715 21.114 3.34 17c-1.445-2.503-1.666-5.366-.88-7.922l-1.835-.5a.495.495 0 01-.121-.91l3.715-2.145a.495.495 0 01.683.183L7.047 9.42a.5.5 0 01-.556.737l-2.09-.56zm4.665-7.162C13.42 1.1 18.285 2.886 20.66 7c1.445 2.503 1.666 5.366.879 7.922l1.835.5a.495.495 0 01.122.91l-3.715 2.145a.495.495 0 01-.683-.183l-2.145-3.715a.5.5 0 01.556-.737l2.09.56c.656-2.064.494-4.384-.67-6.402-1.9-3.29-5.794-4.715-9.274-3.641a1.014 1.014 0 01-1.174-.454 1.014 1.014 0 01.584-1.469z"></path><path d="M11 16v1h2.004v-1H14a1 1 0 001-1v-3a1 1 0 00-1-1h-3v-1h4V8h-2V7h-2v1h-1a1 1 0 00-1 1v3a1 1 0 001 1h3.004v1H9v2h2z"></path></symbol><symbol viewBox="0 0 24 24" id="icon-reward" xmlns="http://www.w3.org/2000/svg"><path d="M9.06 1.93C7.17 1.92 5.33 3.74 6.17 6H3a2 2 0 00-2 2v2a1 1 0 001 1h9V8h2v3h9a1 1 0 001-1V8a2 2 0 00-2-2h-3.17C19 2.73 14.6.42 12.57 3.24L12 4l-.57-.78c-.63-.89-1.5-1.28-2.37-1.29zM9 4c.89 0 1.34 1.08.71 1.71C9.08 6.34 8 5.89 8 5a1 1 0 011-1zm6 0c.89 0 1.34 1.08.71 1.71-.63.63-1.71.18-1.71-.71a1 1 0 011-1zM2 12v8a2 2 0 002 2h16a2 2 0 002-2v-8h-9v8h-2v-8H2z"></path></symbol><symbol viewBox="0 0 24 24" id="icon-reward-line" xmlns="http://www.w3.org/2000/svg"><path d="M22 12v8a2 2 0 01-2 2H4a2 2 0 01-2-2v-8a1 1 0 01-1-1V8a2 2 0 012-2h3.17A3 3 0 019 2c1 0 1.88.5 2.43 1.24v-.01L12 4l.57-.77v.01C13.12 2.5 14 2 15 2a3 3 0 012.83 4H21a2 2 0 012 2v3a1 1 0 01-1 1zM4 20h7v-8H4v8zm16 0v-8h-7v8h7zM9 4a1 1 0 100 2 1 1 0 000-2zm6 0a1 1 0 100 2 1 1 0 000-2zM3 8v2h8V8H3zm10 0v2h8V8h-8z"></path></symbol><symbol viewBox="0 0 24 24" id="icon-savings-line" xmlns="http://www.w3.org/2000/svg"><path d="M15 10c0-.55.45-1 1-1s1 .45 1 1-.45 1-1 1-1-.45-1-1zM8 8a1 1 0 001 1h3a1 1 0 100-2H9a1 1 0 00-1 1zm13-.5a1 1 0 011 1v5.25a1 1 0 01-.684.948l-2.136.712-1.252 4.166A2 2 0 0116.013 21H14a2 2 0 01-2-2h-2a2 2 0 01-2 2H5.994a1.967 1.967 0 01-1.903-1.435C3.382 17.017 2 11.76 2 9.5 2 6.46 4.46 4 7.5 4h5c.91-1.21 2.36-2 4-2a1.498 1.498 0 011.38 2.08c-.14.34-.26.73-.32 1.15l2.27 2.27H21zM20 10a.5.5 0 00-.5-.5H19L15.5 6c0-.65.09-1.29.26-1.91-.97.25-1.76.97-2.09 1.91H7.5C5.57 6 4 7.57 4 9.5c0 1.802 1.12 6.258 1.91 9.134a.497.497 0 00.48.366H7.5a.5.5 0 00.5-.5V17h6v1.5a.5.5 0 00.5.5h1.138a.5.5 0 00.48-.356l1.442-4.794 2.1-.705a.5.5 0 00.34-.474V10z"></path></symbol><symbol viewBox="0 0 24 24" id="icon-savings-solid" xmlns="http://www.w3.org/2000/svg"><path d="M19.83 7.5l-2.27-2.27c.07-.42.18-.81.32-1.15.11-.26.15-.56.09-.87-.13-.72-.83-1.22-1.57-1.21-1.59.03-3 .81-3.9 2h-5C4.46 4 2 6.46 2 9.5c0 2.25 1.37 7.48 2.08 10.04.24.86 1.03 1.46 1.93 1.46H8c1.1 0 2-.9 2-2h2c0 1.1.9 2 2 2h2.01c.88 0 1.66-.58 1.92-1.43l1.25-4.16 2.14-.72a1 1 0 00.68-.95V8.5c0-.55-.45-1-1-1h-1.17zM12 9H9c-.55 0-1-.45-1-1s.45-1 1-1h3c.55 0 1 .45 1 1s-.45 1-1 1zm4 2c-.55 0-1-.45-1-1s.45-1 1-1 1 .45 1 1-.45 1-1 1z"></path></symbol><symbol viewBox="0 0 24 24" id="icon-search" xmlns="http://www.w3.org/2000/svg"><path d="M15.5 14h-.79l-.28-.27a6.5 6.5 0 001.48-5.34c-.47-2.78-2.79-5-5.59-5.34a6.505 6.505 0 00-7.27 7.27c.34 2.8 2.56 5.12 5.34 5.59a6.5 6.5 0 005.34-1.48l.27.28v.79l4.25 4.25c.41.41 1.08.41 1.49 0 .41-.41.41-1.08 0-1.49L15.5 14zm-6 0C7.01 14 5 11.99 5 9.5S7.01 5 9.5 5 14 7.01 14 9.5 11.99 14 9.5 14z"></path></symbol><symbol viewBox="0 0 24 24" id="icon-service" xmlns="http://www.w3.org/2000/svg"><path d="M12.09 2.91C10.08.9 7.07.49 4.65 1.67L8.28 5.3c.39.39.39 1.02 0 1.41L6.69 8.3c-.39.4-1.02.4-1.41 0L1.65 4.67C.48 7.1.89 10.09 2.9 12.1a6.507 6.507 0 006.89 1.48l7.96 7.96a2.613 2.613 0 003.71 0 2.613 2.613 0 000-3.71L13.54 9.9c.92-2.34.44-5.1-1.45-6.99z"></path></symbol><symbol viewBox="0 0 24 24" id="icon-ship-line" xmlns="http://www.w3.org/2000/svg"><path d="M13 3v1h-2V3h2zm-1 7.11l5.38 1.77 2.39.78-1.12 3.97c-.54-.3-.94-.71-1.14-.94L16 13.96l-1.51 1.72c-.34.4-1.28 1.32-2.49 1.32-1.21 0-2.15-.92-2.49-1.32L8 13.96l-1.51 1.72c-.2.23-.6.63-1.14.93l-1.13-3.96 2.4-.79L12 10.11zM15 1H9v3H6c-1.1 0-2 .9-2 2v4.62l-1.29.42a1.007 1.007 0 00-.66 1.28L3.95 19H4c1.6 0 3.02-.88 4-2 .98 1.12 2.4 2 4 2s3.02-.88 4-2c.98 1.12 2.4 2 4 2h.05l1.89-6.68c.08-.26.06-.54-.06-.78a.997.997 0 00-.6-.5L20 10.62V6c0-1.1-.9-2-2-2h-3V1zM6 9.97V6h12v3.97L12 8 6 9.97zm10 9.71a6.985 6.985 0 01-4 1.28c-1.39 0-2.78-.43-4-1.28C6.78 20.53 5.39 21 4 21H2v2h2c1.38 0 2.74-.35 4-.99 1.26.64 2.63.97 4 .97s2.74-.32 4-.97c1.26.65 2.62.99 4 .99h2v-2h-2c-1.39 0-2.78-.47-4-1.32z"></path></symbol><symbol viewBox="0 0 24 24" id="icon-short-loans-solid" xmlns="http://www.w3.org/2000/svg"><path d="M3 11c-1.1 0-2 .9-2 2v7c0 1.1.9 2 2 2s2-.9 2-2v-7c0-1.1-.9-2-2-2zm16.99 6h-6.83a.96.96 0 01-.33-.06l-1.47-.51a.49.49 0 01-.3-.63c.09-.26.38-.4.64-.3l1.12.43c.11.04.24.07.36.07h2.63c.65 0 1.18-.53 1.18-1.18 0-.49-.31-.93-.77-1.11L9.3 11.13c-.22-.09-.46-.13-.7-.13H7v9.02l6.37 1.81c.41.12.85.1 1.25-.05L22 19c0-1.11-.9-2-2.01-2zM13 8h6v2h-6V8zm0-3h6v2h-6V5zm0-3h6v2h-6V2z"></path></symbol><symbol viewBox="0 0 24 24" id="icon-sign-line" xmlns="http://www.w3.org/2000/svg"><path d="M11 10H5L3 8l2-2h6V3l1-1 1 1v1h6l2 2-2 2h-6v2h6l2 2-2 2h-6v6a2 2 0 012 2H9a2 2 0 012-2V10z"></path></symbol><symbol viewBox="0 0 24 24" id="icon-sim" xmlns="http://www.w3.org/2000/svg"><path d="M18 2h-7.172a2 2 0 00-1.414.586L4.586 7.414A2 2 0 004 8.828V20c0 1.1.9 2 2 2h12c1.1 0 2-.9 2-2V4c0-1.1-.9-2-2-2zm-1 2a1 1 0 011 1v14a1 1 0 01-1 1H7a1 1 0 01-1-1V9.244a1 1 0 01.293-.707l4.244-4.244A1 1 0 0111.244 4H17zM7 18a1 1 0 112 0 1 1 0 01-2 0zm8 0a1 1 0 112 0 1 1 0 01-2 0zm-8-6a1 1 0 112 0v2a1 1 0 11-2 0v-2zm4 4a1 1 0 112 0v2a1 1 0 11-2 0v-2zm0-4a1 1 0 112 0 1 1 0 01-2 0zm4 0a1 1 0 112 0v2a1 1 0 11-2 0v-2z"></path></symbol><symbol viewBox="0 0 24 24" id="icon-skier" xmlns="http://www.w3.org/2000/svg"><path d="M18.5 4.5c0 1.1-.9 2-2 2s-2-.9-2-2 .9-2 2-2 2 .9 2 2zm-2.72 16.4l.76.27c.62.21 1.27.33 1.96.33a6 6 0 001.95-.33c.27-.09.57-.02.78.18a.75.75 0 01-.3 1.24c-.76.27-1.58.41-2.43.41-.86 0-1.68-.14-2.45-.41L2.7 17.72a.742.742 0 01-.45-.95c.14-.39.57-.6.96-.45l6.19 2.25 1.72-4.44-3.57-3.73A2 2 0 018 7.28l3.48-2.01c1.1-.64 2.52-.1 2.91 1.11l.33 1.08a5.017 5.017 0 002.83 3.14l.29-.89a.748.748 0 111.42.47l-.6 1.85c-.17.52-.72.82-1.24.65A7.03 7.03 0 0113 8.58l-2.53 1.45 2.23 2.55c.49.56.63 1.34.36 2.04l-1.78 4.63 3.09 1.12 2.1-6.44c.46.18.94.31 1.44.41l-2.13 6.56z"></path></symbol><symbol viewBox="0 0 24 24" id="icon-sms" xmlns="http://www.w3.org/2000/svg"><path d="M20 2H4c-1.1 0-2 .9-2 2v15.586c0 .89 1.077 1.337 1.707.707l2-2A1 1 0 016.414 18H20c1.1 0 2-.9 2-2V4c0-1.1-.9-2-2-2zm0 13a1 1 0 01-1 1H6.414a1 1 0 00-.707.293L4 18V5a1 1 0 011-1h14a1 1 0 011 1v10zM7 10a1 1 0 112 0 1 1 0 01-2 0zm4 0a1 1 0 112 0 1 1 0 01-2 0zm4 0a1 1 0 112 0 1 1 0 01-2 0z"></path></symbol><symbol viewBox="0 0 24 24" id="icon-sort" xmlns="http://www.w3.org/2000/svg"><path d="M4 18h4c.55 0 1-.45 1-1s-.45-1-1-1H4c-.55 0-1 .45-1 1s.45 1 1 1zM3 7c0 .55.45 1 1 1h16c.55 0 1-.45 1-1s-.45-1-1-1H4c-.55 0-1 .45-1 1zm1 6h10c.55 0 1-.45 1-1s-.45-1-1-1H4c-.55 0-1 .45-1 1s.45 1 1 1z"></path></symbol><symbol viewBox="0 0 24 24" id="icon-stopwatch" xmlns="http://www.w3.org/2000/svg"><path d="M14 1h-4c-.55 0-1 .45-1 1s.45 1 1 1h4c.55 0 1-.45 1-1s-.45-1-1-1zm-2 13c.55 0 1-.45 1-1V9c0-.55-.45-1-1-1s-1 .45-1 1v4c0 .55.45 1 1 1zm7.03-6.61l.75-.75a.993.993 0 000-1.4l-.01-.01a.993.993 0 00-1.4 0l-.75.75A8.962 8.962 0 0012 4c-4.8 0-8.88 3.96-9 8.76A8.998 8.998 0 0012 22a8.994 8.994 0 007.03-14.61zM12 20c-3.87 0-7-3.13-7-7s3.13-7 7-7 7 3.13 7 7-3.13 7-7 7z"></path></symbol><symbol viewBox="0 0 24 24" id="icon-stopwatch-fast" xmlns="http://www.w3.org/2000/svg"><path d="M15 5a8 8 0 110 16 8 8 0 010-16zm0 2a6 6 0 100 12 6 6 0 000-12zM2 19a1 1 0 010-2h3.83c.31.71.71 1.38 1.17 2H2zm1-5a1 1 0 010-2h2.05L5 13l.05 1H3zm1-5a1 1 0 010-2h3c-.46.62-.86 1.29-1.17 2H4zm9-7h4c.55 0 1 .45 1 1s-.45 1-1 1h-4c-.55 0-1-.45-1-1s.45-1 1-1z"></path><path fill-rule="evenodd" d="M17.707 10.293a1 1 0 010 1.414l-2 2a1 1 0 01-1.414-1.414l2-2a1 1 0 011.414 0z" clip-rule="evenodd"></path></symbol><symbol viewBox="0 0 24 24" id="icon-term-deposit" xmlns="http://www.w3.org/2000/svg"><path d="M19 3h-1V2c0-.55-.45-1-1-1s-1 .45-1 1v1H8V2c0-.55-.45-1-1-1s-1 .45-1 1v1H5c-1.11 0-1.99.9-1.99 2L3 19a2 2 0 002 2h14c1.1 0 2-.9 2-2V5c0-1.1-.9-2-2-2zm-1 16H6c-.55 0-1-.45-1-1V7h14v11c0 .55-.45 1-1 1z"></path><path d="M11 17v1h2.004v-1H14a1 1 0 001-1v-3a1 1 0 00-1-1h-3v-1h4V9h-2V8h-2v1h-1a1 1 0 00-1 1v3a1 1 0 001 1h3.004v1H9v2h2z"></path></symbol><symbol viewBox="0 0 24 24" id="icon-tick" xmlns="http://www.w3.org/2000/svg"><path d="M9 16.2l-3.5-3.5a.984.984 0 00-1.4 0 .984.984 0 000 1.4l4.19 4.19c.39.39 1.02.39 1.41 0L20.3 7.7a.984.984 0 000-1.4.984.984 0 00-1.4 0L9 16.2z"></path></symbol><symbol viewBox="0 0 24 24" id="icon-transfer" xmlns="http://www.w3.org/2000/svg"><path d="M6.14 11.86l-2.78 2.79c-.19.2-.19.51 0 .71l2.78 2.79c.31.32.85.09.85-.35V16H13c.55 0 1-.45 1-1s-.45-1-1-1H6.99v-1.79c0-.45-.54-.67-.85-.35zm14.51-3.21l-2.78-2.79c-.31-.32-.85-.09-.85.35V8H11c-.55 0-1 .45-1 1s.45 1 1 1h6.01v1.79c0 .45.54.67.85.35l2.78-2.79c.2-.19.2-.51.01-.7z"></path></symbol><symbol viewBox="0 0 24 24" id="icon-travel-insurance-line" xmlns="http://www.w3.org/2000/svg"><path d="M21.5 14.58c0-.36-.19-.69-.49-.89L13.5 9V3.5c0-.83-.67-1.5-1.5-1.5s-1.5.67-1.5 1.5V9l-7.51 4.69a1.05 1.05 0 00.87 1.89l6.64-2.08V19l-1.8 1.35a.48.48 0 00-.2.4v.59c0 .33.32.57.64.48L12 21l2.86.82c.32.09.64-.15.64-.48v-.59a.48.48 0 00-.2-.4L13.5 19v-5.5l6.64 2.08c.68.21 1.36-.3 1.36-1z"></path></symbol><symbol viewBox="0 0 24 24" id="icon-travel-insurance-solid" xmlns="http://www.w3.org/2000/svg"><path d="M21 14.58c0-.36-.19-.69-.49-.89L13 9V3.5c0-.83-.67-1.5-1.5-1.5S10 2.67 10 3.5V9l-7.51 4.69a1.05 1.05 0 00.87 1.89L10 13.5V19l-1.8 1.35a.48.48 0 00-.2.4v.59c0 .33.32.57.64.48L11.5 21l2.86.82c.32.09.64-.15.64-.48v-.59a.48.48 0 00-.2-.4L13 19v-5.5l6.64 2.08c.68.21 1.36-.3 1.36-1z"></path></symbol><symbol viewBox="0 0 24 24" id="icon-travel-money-line" xmlns="http://www.w3.org/2000/svg"><path d="M17 5h-2V3c0-.55-.45-1-1-1h-4c-.55 0-1 .45-1 1v2H7c-1.1 0-2 .9-2 2v12c0 1.1.9 2 2 2 0 .55.45 1 1 1s1-.45 1-1h6c0 .55.45 1 1 1s1-.45 1-1c1.1 0 2-.9 2-2V7c0-1.1-.9-2-2-2zm-6.5-1.5h3V5h-3V3.5zM17 19H7V7h10v12z"></path><path d="M11 17v1h2.004v-1H14a1 1 0 001-1v-3a1 1 0 00-1-1h-3v-1h4V9h-2V8h-2v1h-1a1 1 0 00-1 1v3a1 1 0 001 1h3.004v1H9v2h2z"></path></symbol><symbol viewBox="0 0 24 24" id="icon-travel-money-solid" xmlns="http://www.w3.org/2000/svg"><path fill-rule="evenodd" d="M15 5h2c1.1 0 2 .9 2 2v12c0 1.1-.9 2-2 2 0 .55-.45 1-1 1s-1-.45-1-1H9c0 .55-.45 1-1 1s-1-.45-1-1c-1.1 0-2-.9-2-2V7c0-1.1.9-2 2-2h2V3c0-.55.45-1 1-1h4c.55 0 1 .45 1 1v2zm-1.5-1.5h-3V5h3V3.5zM11 18v-1H9v-2h4.004v-1H10a1 1 0 01-1-1v-3a1 1 0 011-1h1V8h2v1h2v2h-4v1h3a1 1 0 011 1v3a1 1 0 01-1 1h-.996v1H11z" clip-rule="evenodd"></path></symbol><symbol viewBox="0 0 24 24" id="icon-tv-line" xmlns="http://www.w3.org/2000/svg"><path d="M21 3H3c-1.1 0-2 .9-2 2v12c0 1.1.9 2 2 2h5v1c0 .55.45 1 1 1h6c.55 0 1-.45 1-1v-1h5c1.1 0 1.99-.9 1.99-2L23 5c0-1.1-.9-2-2-2zm-1 14H4c-.55 0-1-.45-1-1V6c0-.55.45-1 1-1h16c.55 0 1 .45 1 1v10c0 .55-.45 1-1 1z"></path></symbol><symbol viewBox="0 0 24 24" id="icon-twitter" xmlns="http://www.w3.org/2000/svg"><path d="M22.46 6c-.77.35-1.6.58-2.46.69.88-.53 1.56-1.37 1.88-2.38-.83.5-1.75.85-2.72 1.05C18.37 4.5 17.26 4 16 4c-2.35 0-4.27 1.92-4.27 4.29 0 .34.04.67.11.98C8.28 9.09 5.11 7.38 3 4.79c-.37.63-.58 1.37-.58 2.15 0 1.49.75 2.81 1.91 3.56-.71 0-1.37-.2-1.95-.5v.03c0 2.08 1.48 3.82 3.44 4.21a4.22 4.22 0 01-1.93.07 4.28 4.28 0 004 2.98 8.521 8.521 0 01-5.33 1.84c-.34 0-.68-.02-1.02-.06C3.44 20.29 5.7 21 8.12 21 16 21 20.33 14.46 20.33 8.79c0-.19 0-.37-.01-.56.84-.6 1.56-1.36 2.14-2.23z"></path></symbol><symbol viewBox="0 0 24 24" id="icon-whatsapp" xmlns="http://www.w3.org/2000/svg"><path d="M12.04 2c-5.46 0-9.91 4.45-9.91 9.91 0 1.75.46 3.45 1.32 4.95L2.05 22l5.25-1.38c1.45.79 3.08 1.21 4.74 1.21 5.46 0 9.91-4.45 9.91-9.91 0-2.65-1.03-5.14-2.9-7.01A9.816 9.816 0 0012.04 2zm.01 1.67c2.2 0 4.26.86 5.82 2.42a8.225 8.225 0 012.41 5.83c0 4.54-3.7 8.23-8.24 8.23-1.48 0-2.93-.39-4.19-1.15l-.3-.17-3.12.82.83-3.04-.2-.32a8.188 8.188 0 01-1.26-4.38c.01-4.54 3.7-8.24 8.25-8.24zM8.53 7.33c-.16 0-.43.06-.66.31-.22.25-.87.86-.87 2.07 0 1.22.89 2.39 1 2.56.14.17 1.76 2.67 4.25 3.73.59.27 1.05.42 1.41.53.59.19 1.13.16 1.56.1.48-.07 1.46-.6 1.67-1.18.21-.58.21-1.07.15-1.18-.07-.1-.23-.16-.48-.27-.25-.14-1.47-.74-1.69-.82-.23-.08-.37-.12-.56.12-.16.25-.64.81-.78.97-.15.17-.29.19-.53.07-.26-.13-1.06-.39-2-1.23-.74-.66-1.23-1.47-1.38-1.72-.12-.24-.01-.39.11-.5.11-.11.27-.29.37-.44.13-.14.17-.25.25-.41.08-.17.04-.31-.02-.43-.06-.11-.56-1.35-.77-1.84-.2-.48-.4-.42-.56-.43-.14 0-.3-.01-.47-.01z"></path></symbol><symbol viewBox="0 0 24 24" id="icon-wifi" xmlns="http://www.w3.org/2000/svg"><path d="M2.06 10.06c.51.51 1.32.56 1.87.1 4.67-3.84 11.45-3.84 16.13-.01.56.46 1.38.42 1.89-.09.59-.59.55-1.57-.1-2.1-5.71-4.67-13.97-4.67-19.69 0-.65.52-.7 1.5-.1 2.1zm7.76 7.76l1.47 1.47c.39.39 1.02.39 1.41 0l1.47-1.47c.47-.47.37-1.28-.23-1.59a4.28 4.28 0 00-3.91 0c-.57.31-.68 1.12-.21 1.59zm-3.73-3.73c.49.49 1.26.54 1.83.13a7.064 7.064 0 018.16 0c.57.4 1.34.36 1.83-.13l.01-.01c.6-.6.56-1.62-.13-2.11-3.44-2.49-8.13-2.49-11.58 0-.69.5-.73 1.51-.12 2.12z"></path></symbol><symbol viewBox="0 0 24 24" id="info" xmlns="http://www.w3.org/2000/svg"><path d="M0 0h24v24H0z" fill="none"></path><path d="M12 2C6.48 2 2 6.48 2 12s4.48 10 10 10 10-4.48 10-10S17.52 2 12 2zm1 15h-2v-6h2v6zm0-8h-2V7h2v2z"></path></symbol><symbol viewBox="0 0 24 24" id="info-circle" xmlns="http://www.w3.org/2000/svg"><path d="M11 17h2v-6h-2v6zm1-15C6.48 2 2 6.48 2 12s4.48 10 10 10 10-4.48 10-10S17.52 2 12 2zm0 18.75c-4.823 0-8.75-3.927-8.75-8.75S7.177 3.25 12 3.25s8.75 3.927 8.75 8.75-3.927 8.75-8.75 8.75zM11 9h2V7h-2v2z"></path></symbol><symbol viewBox="0 0 24 24" id="layers" xmlns="http://www.w3.org/2000/svg"><path d="M0 0h24v24H0z" fill="none"></path><path d="M11.99 18.54l-7.37-5.73L3 14.07l9 7 9-7-1.63-1.27-7.38 5.74zM12 16l7.36-5.73L21 9l-9-7-9 7 1.63 1.27L12 16z"></path></symbol><symbol viewBox="0 0 24 24" id="lock" xmlns="http://www.w3.org/2000/svg"><clipPath id="fha"><path d="M0 0h24v24H0V0z"></path></clipPath><path clip-path="url(#fha)" d="M12 17c1.1 0 2-.9 2-2s-.9-2-2-2-2 .9-2 2 .9 2 2 2zm6-9h-1V6c0-2.76-2.24-5-5-5S7 3.24 7 6v2H6c-1.1 0-2 .9-2 2v10c0 1.1.9 2 2 2h12c1.1 0 2-.9 2-2V10c0-1.1-.9-2-2-2zM8.9 6c0-1.71 1.39-3.1 3.1-3.1s3.1 1.39 3.1 3.1v2H8.9V6zM18 20H6V10h12v10z"></path></symbol><symbol viewBox="0 0 24 24" id="lock-fill" xmlns="http://www.w3.org/2000/svg"><path d="M0 0h24v24H0z" fill="none"></path><path d="M18 8h-1V6c0-2.76-2.24-5-5-5S7 3.24 7 6v2H6c-1.1 0-2 .9-2 2v10c0 1.1.9 2 2 2h12c1.1 0 2-.9 2-2V10c0-1.1-.9-2-2-2zm-6 9c-1.1 0-2-.9-2-2s.9-2 2-2 2 .9 2 2-.9 2-2 2zm3.1-9H8.9V6c0-1.71 1.39-3.1 3.1-3.1 1.71 0 3.1 1.39 3.1 3.1v2z"></path></symbol><symbol viewBox="0 0 24 24" id="lock-open" xmlns="http://www.w3.org/2000/svg"><path d="M0 0h24v24H0z" fill="none"></path><path d="M12 17c1.1 0 2-.9 2-2s-.9-2-2-2-2 .9-2 2 .9 2 2 2zm6-9h-1V6c0-2.76-2.24-5-5-5S7 3.24 7 6h1.9c0-1.71 1.39-3.1 3.1-3.1 1.71 0 3.1 1.39 3.1 3.1v2H6c-1.1 0-2 .9-2 2v10c0 1.1.9 2 2 2h12c1.1 0 2-.9 2-2V10c0-1.1-.9-2-2-2zm0 12H6V10h12v10z"></path></symbol><symbol viewBox="0 0 24 24" id="mail" xmlns="http://www.w3.org/2000/svg"><path d="M0 0h24v24H0z" fill="none"></path><path d="M20 4H4c-1.1 0-1.99.9-1.99 2L2 18c0 1.1.9 2 2 2h16c1.1 0 2-.9 2-2V6c0-1.1-.9-2-2-2zm0 14H4V8l8 5 8-5v10zm-8-7L4 6h16l-8 5z"></path></symbol><symbol viewBox="0 0 24 24" id="mail-fill" xmlns="http://www.w3.org/2000/svg"><path d="M20 4H4c-1.1 0-1.99.9-1.99 2L2 18c0 1.1.9 2 2 2h16c1.1 0 2-.9 2-2V6c0-1.1-.9-2-2-2zm0 4l-8 5-8-5V6l8 5 8-5v2z"></path><path d="M0 0h24v24H0z" fill="none"></path></symbol><symbol viewBox="0 0 24 24" id="menu" xmlns="http://www.w3.org/2000/svg"><path fill-rule="evenodd" d="M3 12a1 1 0 011-1h16a1 1 0 110 2H4a1 1 0 01-1-1zm0-6a1 1 0 011-1h16a1 1 0 110 2H4a1 1 0 01-1-1zm0 12a1 1 0 011-1h16a1 1 0 110 2H4a1 1 0 01-1-1z" clip-rule="evenodd"></path></symbol><symbol viewBox="0 0 24 24" id="monetization-on" xmlns="http://www.w3.org/2000/svg"><path d="M12 2C6.48 2 2 6.48 2 12s4.48 10 10 10 10-4.48 10-10S17.52 2 12 2zm1.41 16.09V20h-2.67v-1.93c-1.71-.36-3.16-1.46-3.27-3.4h1.96c.1 1.05.82 1.87 2.65 1.87 1.96 0 2.4-.98 2.4-1.59 0-.83-.44-1.61-2.67-2.14-2.48-.6-4.18-1.62-4.18-3.67 0-1.72 1.39-2.84 3.11-3.21V4h2.67v1.95c1.86.45 2.79 1.86 2.85 3.39H14.3c-.05-1.11-.64-1.87-2.22-1.87-1.5 0-2.4.68-2.4 1.64 0 .84.65 1.39 2.67 1.91s4.18 1.39 4.18 3.91c-.01 1.83-1.38 2.83-3.12 3.16z"></path><path d="M0 0h24v24H0z" fill="none"></path></symbol><symbol viewBox="0 0 24 24" id="notification" xmlns="http://www.w3.org/2000/svg"><path fill-rule="evenodd" d="M7.05 3.05A7 7 0 0119 8c0 3.353.717 5.435 1.378 6.646.332.608.655 1.007.88 1.244a3.026 3.026 0 00.306.284l.002.002A1 1 0 0121 18H3a1 1 0 01-.563-1.826l.052-.042c.053-.044.141-.123.254-.242.224-.237.547-.636.88-1.244C4.282 13.435 5 11.353 5 8a7 7 0 012.05-4.95zM2.444 16.17zM5.149 16h13.702a9.421 9.421 0 01-.229-.396C17.783 14.065 17 11.647 17 8A5 5 0 007 8c0 3.647-.783 6.065-1.622 7.604-.076.14-.153.271-.229.396zm4.619 4.135a1 1 0 011.367.363 1 1 0 001.73 0 1 1 0 011.73 1.004 3 3 0 01-5.19 0 1 1 0 01.363-1.367z" clip-rule="evenodd"></path></symbol><symbol viewBox="0 0 24 24" id="notifications" xmlns="http://www.w3.org/2000/svg"><path d="M12 22c1.1 0 2-.9 2-2h-4a2 2 0 002 2zm6-6v-5c0-3.07-1.64-5.64-4.5-6.32V4c0-.83-.67-1.5-1.5-1.5s-1.5.67-1.5 1.5v.68C7.63 5.36 6 7.92 6 11v5l-2 2v1h16v-1l-2-2z"></path></symbol><symbol viewBox="0 0 24 24" id="people" xmlns="http://www.w3.org/2000/svg"><path d="M0 0h24v24H0z" fill="none"></path><path d="M16 11c1.66 0 2.99-1.34 2.99-3S17.66 5 16 5c-1.66 0-3 1.34-3 3s1.34 3 3 3zm-8 0c1.66 0 2.99-1.34 2.99-3S9.66 5 8 5C6.34 5 5 6.34 5 8s1.34 3 3 3zm0 2c-2.33 0-7 1.17-7 3.5V19h14v-2.5c0-2.33-4.67-3.5-7-3.5zm8 0c-.29 0-.62.02-.97.05 1.16.84 1.97 1.97 1.97 3.45V19h6v-2.5c0-2.33-4.67-3.5-7-3.5z"></path></symbol><symbol viewBox="0 0 24 24" id="phone" xmlns="http://www.w3.org/2000/svg"><path d="M0 0h24v24H0z" fill="none"></path><path d="M6.62 10.79c1.44 2.83 3.76 5.14 6.59 6.59l2.2-2.2c.27-.27.67-.36 1.02-.24 1.12.37 2.33.57 3.57.57.55 0 1 .45 1 1V20c0 .55-.45 1-1 1-9.39 0-17-7.61-17-17 0-.55.45-1 1-1h3.5c.55 0 1 .45 1 1 0 1.25.2 2.45.57 3.57.11.35.03.74-.25 1.02l-2.2 2.2z"></path></symbol><symbol viewBox="0 0 24 24" id="photo-camera" xmlns="http://www.w3.org/2000/svg"><circle cx="12" cy="12" r="3.2"></circle><path d="M9 2L7.17 4H4c-1.1 0-2 .9-2 2v12c0 1.1.9 2 2 2h16c1.1 0 2-.9 2-2V6c0-1.1-.9-2-2-2h-3.17L15 2H9zm3 15c-2.76 0-5-2.24-5-5s2.24-5 5-5 5 2.24 5 5-2.24 5-5 5z"></path><path d="M0 0h24v24H0z" fill="none"></path></symbol><symbol viewBox="0 0 24 24" id="remove" xmlns="http://www.w3.org/2000/svg"><path d="M19 13H5v-2h14v2z"></path><path d="M0 0h24v24H0z" fill="none"></path></symbol><symbol viewBox="0 0 24 24" id="reset" xmlns="http://www.w3.org/2000/svg"><path d="M6.35 6.35A7.958 7.958 0 0112 4c4.42 0 7.99 3.58 7.99 8s-3.57 8-7.99 8c-3.73 0-6.84-2.55-7.73-6h2.08c.82 2.33 3.04 4 5.65 4 3.31 0 6-2.69 6-6s-2.69-6-6-6c-1.66 0-3.14.69-4.22 1.78L11 11H4V4l2.35 2.35z"></path><path fill="none" d="M0 0h24v24H0"></path></symbol><symbol viewBox="0 0 24 24" id="school" xmlns="http://www.w3.org/2000/svg"><path d="M0 0h24v24H0z" fill="none"></path><path d="M5 13.18v4L12 21l7-3.82v-4L12 17l-7-3.82zM12 3L1 9l11 6 9-4.91V17h2V9L12 3z"></path></symbol><symbol viewBox="0 0 24 24" id="search" xmlns="http://www.w3.org/2000/svg"><path fill-rule="evenodd" d="M11 2a9 9 0 105.618 16.032l3.675 3.675a1 1 0 001.415-1.414l-3.676-3.675A9 9 0 0011 2zm-7 9a7 7 0 1114 0 7 7 0 01-14 0z" clip-rule="evenodd"></path></symbol><symbol viewBox="0 0 24 24" id="shopping-basket" xmlns="http://www.w3.org/2000/svg"><path d="M0 0h24v24H0z" fill="none"></path><path d="M17.21 9l-4.38-6.56a.993.993 0 00-.83-.42c-.32 0-.64.14-.83.43L6.79 9H2c-.55 0-1 .45-1 1 0 .09.01.18.04.27l2.54 9.27c.23.84 1 1.46 1.92 1.46h13c.92 0 1.69-.62 1.93-1.46l2.54-9.27L23 10c0-.55-.45-1-1-1h-4.79zM9 9l3-4.4L15 9H9zm3 8c-1.1 0-2-.9-2-2s.9-2 2-2 2 .9 2 2-.9 2-2 2z"></path></symbol><symbol viewBox="0 0 24 24" id="shopping-cart" xmlns="http://www.w3.org/2000/svg"><path d="M7 18c-1.1 0-1.99.9-1.99 2S5.9 22 7 22s2-.9 2-2-.9-2-2-2zM1 2v2h2l3.6 7.59-1.35 2.45c-.16.28-.25.61-.25.96 0 1.1.9 2 2 2h12v-2H7.42c-.14 0-.25-.11-.25-.25l.03-.12.9-1.63h7.45c.75 0 1.41-.41 1.75-1.03l3.58-6.49A1.003 1.003 0 0020 4H5.21l-.94-2H1zm16 16c-1.1 0-1.99.9-1.99 2s.89 2 1.99 2 2-.9 2-2-.9-2-2-2z"></path><path d="M0 0h24v24H0z" fill="none"></path></symbol><symbol viewBox="0 0 24 24" id="sort" xmlns="http://www.w3.org/2000/svg"><path d="M3 18h6v-2H3v2zM3 6v2h18V6H3zm0 7h12v-2H3v2z"></path><path fill="none" d="M0 0h24v24H0z"></path></symbol><symbol viewBox="0 0 24 24" id="thumbs-down" xmlns="http://www.w3.org/2000/svg"><path fill="none" d="M24 24H0V0h24v24z"></path><path d="M22 4h-2c-.55 0-1 .45-1 1v9c0 .55.45 1 1 1h2V4zM2.17 11.12c-.11.25-.17.52-.17.8V13c0 1.1.9 2 2 2h5.5l-.92 4.65c-.05.22-.02.46.08.66.23.45.52.86.88 1.22L10 22l6.41-6.41c.38-.38.59-.89.59-1.42V6.34C17 5.05 15.95 4 14.66 4h-8.1c-.71 0-1.36.37-1.72.97l-2.67 6.15z"></path></symbol><symbol viewBox="0 0 24 24" id="thumbs-up" xmlns="http://www.w3.org/2000/svg"><path fill="none" d="M24 24H0V0h24v24z"></path><path d="M2 20h2c.55 0 1-.45 1-1v-9c0-.55-.45-1-1-1H2v11zm19.83-7.12c.11-.25.17-.52.17-.8V11c0-1.1-.9-2-2-2h-5.5l.92-4.65c.05-.22.02-.46-.08-.66a4.8 4.8 0 00-.88-1.22L14 2 7.59 8.41C7.21 8.79 7 9.3 7 9.83v7.84A2.34 2.34 0 009.34 20h8.11c.7 0 1.36-.37 1.72-.97l2.66-6.15z"></path></symbol><symbol viewBox="0 0 24 24" id="thumbs-up-down" xmlns="http://www.w3.org/2000/svg"><path d="M12 6c0-.55-.45-1-1-1H5.82l.66-3.18.02-.23c0-.31-.13-.59-.33-.8L5.38 0 .44 4.94C.17 5.21 0 5.59 0 6v6.5c0 .83.67 1.5 1.5 1.5h6.75c.62 0 1.15-.38 1.38-.91l2.26-5.29c.07-.17.11-.36.11-.55V6zm10.5 4h-6.75c-.62 0-1.15.38-1.38.91l-2.26 5.29c-.07.17-.11.36-.11.55V18c0 .55.45 1 1 1h5.18l-.66 3.18-.02.24c0 .31.13.59.33.8l.79.78 4.94-4.94c.27-.27.44-.65.44-1.06v-6.5c0-.83-.67-1.5-1.5-1.5z"></path><path d="M0 0h24v24H0z" fill="none"></path></symbol><symbol viewBox="0 0 24 24" id="user" xmlns="http://www.w3.org/2000/svg"><path fill-rule="evenodd" d="M4.464 15.464A5 5 0 018 14h8a5 5 0 015 5v2a1 1 0 11-2 0v-2a3 3 0 00-3-3H8a3 3 0 00-3 3v2a1 1 0 11-2 0v-2a5 5 0 011.464-3.536zM12 4a3 3 0 100 6 3 3 0 000-6zM7 7a5 5 0 1110 0A5 5 0 017 7z" clip-rule="evenodd"></path></symbol><symbol viewBox="0 0 24 24" id="user-check-fill" xmlns="http://www.w3.org/2000/svg"><path d="M0 0h24v24H0z" fill="none"></path><g fill-rule="evenodd"><path d="M9 17l3-2.94a9.34 9.34 0 00-1-.06c-2.67 0-8 1.34-8 4v2h9l-3-3zm2-5c2.21 0 4-1.79 4-4s-1.79-4-4-4-4 1.79-4 4 1.79 4 4 4M15.47 20.5L12 17l1.4-1.41 2.07 2.08 5.13-5.17 1.4 1.41z"></path></g></symbol></svg>